<svg width="78" height="27" viewBox="0 0 78 27" fill="none" xmlns="http://www.w3.org/2000/svg">
<path d="M0.00701566 22.7867C0.490486 23.0833 0.949551 23.4338 1.46218 23.6662C2.79686 24.2713 4.15929 24.251 5.47425 23.6106C7.49102 22.6283 8.49979 20.9058 8.82477 18.7598C9.09176 16.9966 8.72714 15.3456 7.71638 13.857C7.3272 13.2838 6.8517 12.7928 6.28412 12.3928C6.21733 12.3457 6.15433 12.2933 6.11723 12.2647C6.59475 11.8789 7.12124 11.5427 7.53731 11.1022C9.57016 8.9503 9.2454 5.83104 7.14809 4.06728C5.9202 3.03466 4.49833 2.58987 2.92287 2.72364C2.27308 2.77881 1.64004 3.03462 1.00046 3.20327C0.904193 3.22865 0.813832 3.27644 0.720737 3.31387C0.702405 3.28864 0.684074 3.26341 0.665742 3.23819C1.18253 2.77845 1.6747 2.28674 2.22135 1.86576C3.28843 1.04401 4.47957 0.467061 5.80824 0.187975C7.60052 -0.188491 9.33298 -4.47035e-05 10.9924 0.758377C13.2272 1.77981 14.8135 3.48793 16.0106 5.59327C17.0538 7.42813 17.651 9.41109 17.8838 11.4964C18.1437 13.8257 17.9767 16.127 17.291 18.3835C16.775 20.0818 16.0195 21.6553 14.923 23.0523C13.3536 25.0516 11.3964 26.4691 8.83758 26.8879C7.17486 27.16 5.56029 26.9365 4.02073 26.2212C2.43688 25.4853 1.16162 24.3782 0.0991091 23.0092C0.0556935 22.9532 0.0266524 22.8861 0 22.8041C0.00908609 22.784 0.00701566 22.7867 0.00701566 22.7867ZM12.0348 9.4005C11.7208 9.36664 11.3978 9.26992 11.0947 9.31307C10.5884 9.38515 10.224 9.82161 10.155 10.3102C10.0698 10.9138 10.4249 11.7463 10.8979 11.9897C11.0671 12.0768 11.2698 12.1366 11.4587 12.1409C12.0749 12.1547 12.6441 11.7141 12.805 11.1339C12.9785 10.5081 12.6767 9.79904 12.0348 9.4005Z" fill="#332E26"/>
<path d="M75.649 12.5101C76.3161 12.9202 76.7147 13.5177 76.8595 14.2711C77.1113 15.5812 77.3749 16.8922 77.5437 18.2152C77.7413 19.7642 77.851 21.3256 77.9831 22.8831C78.0713 23.9225 77.83 24.8284 76.8819 25.3704C76.5574 25.5559 76.2064 25.7092 75.8501 25.8122C75.4837 25.9181 75.0974 25.9845 74.7174 25.9983C73.6674 26.0366 72.9587 25.42 72.7817 24.3433C72.7388 24.0828 72.7297 23.8153 72.7179 23.5504C72.6763 22.6109 72.6498 21.6705 72.5961 20.7318C72.5806 20.4602 72.5286 20.1347 72.2315 20.0532C71.9105 19.9651 71.8223 20.3026 71.6819 20.5109C71.4682 20.8276 71.2902 21.174 71.0514 21.4677C70.6262 21.9908 70.1526 22.0027 69.6844 21.5114C69.3802 21.1922 69.1169 20.8314 68.8234 20.5006C68.7227 20.3871 68.5861 20.308 68.466 20.2133C68.4301 20.2221 68.3942 20.2309 68.3584 20.2398C68.3136 20.5338 68.2352 20.8272 68.2301 21.122C68.2121 22.167 68.2241 23.2125 68.215 24.2577C68.2086 24.9911 68.0392 25.2504 67.3875 25.5022C66.5984 25.8071 65.7773 25.9381 64.9515 25.7451C63.4697 25.3987 63.0615 24.7735 63.013 23.3644C62.9571 21.7418 63.0853 20.1286 63.3322 18.5317C63.5535 17.0997 63.8464 15.6782 64.1503 14.262C64.2864 13.6282 64.4779 13.001 65.0258 12.5698C65.9043 11.8785 67.2334 11.7827 68.0874 12.4678C68.4123 12.7285 68.6287 13.1593 68.8383 13.5454C69.1912 14.1954 69.4764 14.8853 69.8328 15.533C70.1626 16.1324 70.4717 16.5207 70.9919 15.5536C71.3037 14.974 71.5789 14.3731 71.8943 13.7958C72.0872 13.4428 72.2941 13.0884 72.5487 12.7834C73.2161 11.9839 74.0764 11.9416 74.985 12.2061C75.2089 12.2713 75.4158 12.3993 75.649 12.5101Z" fill="#332E26"/>
<path d="M21.2179 13.6275C21.2292 13.5937 21.2346 13.5844 21.238 13.5745C21.8141 11.9155 21.8522 12.0531 23.4209 11.485C24.4882 11.0985 25.6063 10.9583 26.7405 11.0105C28.6083 11.0964 30.3041 11.6406 31.6636 13.0091C32.5032 13.8542 32.8383 14.9035 32.792 16.0928C32.7672 16.7289 32.7622 17.3752 32.3995 17.924C32.2306 18.1796 31.9916 18.4032 31.7453 18.5874C30.9202 19.2042 30.8349 19.5421 31.4743 20.3449C32.0628 21.0839 32.7218 21.7647 33.3365 22.4827C33.5334 22.7127 33.712 22.9665 33.8564 23.2332C34.0979 23.6789 34.0293 24.0477 33.6921 24.4213C33.1088 25.0675 32.3359 25.3482 31.5338 25.5581C31.2242 25.639 30.8982 25.6596 30.5783 25.6942C29.4529 25.8158 28.6201 25.3309 28.02 24.3928C27.5722 23.6926 27.1466 22.9777 26.696 22.2793C26.5204 22.0072 26.3167 21.7501 26.0983 21.512C26.0219 21.4287 25.8298 21.3569 25.7506 21.3983C25.6452 21.4535 25.546 21.6201 25.5363 21.7462C25.507 22.125 25.52 22.5073 25.5211 22.8882C25.5224 23.3013 25.5376 23.7144 25.5314 24.1273C25.5152 25.2183 25.14 25.6731 24.0827 25.8982C22.9579 26.1376 21.8893 25.9394 20.8572 25.4661C20.4839 25.2949 20.3015 24.9793 20.2066 24.5903C19.9913 23.7073 19.9888 22.808 20.0069 21.9088C20.0607 19.2337 20.4162 16.6005 21.0983 14.0144C21.1305 13.8921 21.1732 13.7726 21.2179 13.6275ZM25.0665 15.7502C24.9214 16.3771 25.1389 16.8736 25.6217 17.2547C26.0364 17.5821 26.7723 17.5663 27.2785 17.2459C27.7158 16.9691 27.9866 16.3546 27.8943 15.8482C27.8002 15.332 27.4117 14.9294 26.859 14.8438C26.5861 14.8016 26.297 14.8212 26.0208 14.8568C25.5295 14.92 25.2155 15.2152 25.0665 15.7502Z" fill="#332E26"/>
<path d="M55.6643 12.2003C57.1734 12.7311 58.1849 13.8378 58.9688 15.1808C60.3154 17.4882 61.0767 19.9824 60.9939 22.7085C60.9668 23.5995 60.7886 24.4605 60.1696 25.1384C58.8194 26.6171 56.301 26.1149 55.5932 24.2248C55.462 23.8742 55.3784 23.503 55.2901 23.1367C55.1867 22.7079 55.027 22.3122 54.7128 22.0055C54.2843 21.5872 53.7872 21.7094 53.6298 22.2942C53.5384 22.634 53.5057 22.9965 53.4868 23.3511C53.3841 25.2703 51.9525 26.1148 50.2959 25.9166C48.9088 25.7507 48.2695 24.8379 48.09 23.4925C47.8352 21.5825 48.1412 19.7335 48.7562 17.9292C49.323 16.2665 50.097 14.7259 51.3097 13.4727C52.2007 12.552 53.2503 11.9295 54.565 12.0064C54.9257 12.0275 55.2821 12.1282 55.6643 12.2003ZM55.5965 18.4508C55.6417 17.8608 55.4351 17.3642 55.0499 16.9495C54.5573 16.4192 53.898 16.4882 53.5278 17.1129C53.2884 17.517 53.2435 17.9653 53.3561 18.4279C53.4807 18.9393 53.9266 19.2925 54.466 19.3059C55.0981 19.3215 55.4212 19.0905 55.5965 18.4508Z" fill="#332E26"/>
<path d="M40.46 12.0672C41.5859 11.9341 42.6719 11.9804 43.7214 12.3731C44.7699 12.7654 45.5115 13.4437 45.6807 14.639C45.777 15.3192 45.4512 16.0718 44.8939 16.2282C44.5164 16.3342 44.0984 16.3069 43.6984 16.3087C43.0613 16.3117 42.4228 16.2606 41.7873 16.2893C41.4473 16.3046 41.2608 16.5701 41.2605 16.8682C41.2602 17.162 41.4524 17.3937 41.8128 17.4253C42.2614 17.4645 42.7156 17.432 43.1663 17.4529C43.7156 17.4782 44.2738 17.4739 44.8101 17.5788C45.4848 17.7109 45.9487 18.3636 45.9952 19.0964C46.0438 19.8604 45.7184 20.5961 45.1363 20.7593C44.6452 20.8969 44.1098 20.8714 43.5935 20.9127C43.1935 20.9447 42.7913 20.9543 42.393 21.0007C42.1513 21.0288 42.0001 21.206 41.9864 21.4514C41.9728 21.6964 42.0631 21.9498 42.3118 22.0015C42.7106 22.0844 43.1224 22.117 43.5302 22.1359C43.8436 22.1504 44.1592 22.1087 44.474 22.0961C45.3585 22.0606 45.7274 22.6308 45.7666 23.4064C45.833 24.7165 45.2334 25.4686 43.9008 25.7764C42.764 26.0391 41.6084 26.0521 40.4615 25.9099C39.6458 25.8087 38.8378 25.617 38.0373 25.4193C37.2006 25.2126 36.7402 24.6189 36.5322 23.7761C36.2615 22.6797 36.1217 21.5681 36.0508 20.4422C35.9632 19.0511 35.9783 17.6635 36.1803 16.2849C36.263 15.7205 36.391 15.158 36.5538 14.6118C36.8078 13.7596 37.4312 13.2293 38.1705 12.8162C38.8795 12.42 39.6445 12.2085 40.46 12.0672Z" fill="#332E26"/>
</svg>
