<svg width="180" height="111" viewBox="0 0 180 111" fill="none" xmlns="http://www.w3.org/2000/svg">
<path d="M61.1279 13.9H60.5039V13.828H60.4319L60.4199 13.792V13.768L60.3479 13.756V13.696H60.2159L60.1919 13.552H60.1199L60.1079 13.408H60.0599L60.0479 13.36L60.0239 13.252L60.0119 13.192H59.9519L59.9399 13.072H59.8679L59.8199 12.436H59.8919L59.8319 11.872L59.7839 11.32H59.7239L59.6759 10.696L59.7359 10.684L59.6879 10.12H59.6159L59.6039 9.988H59.5439L59.4719 9.292H59.5439L59.5319 9.16H59.6039L59.5559 8.668H59.4839L59.4119 7.828H59.3399L59.1359 5.452H59.0759L59.0519 5.176H59.1119L59.0879 4.9H59.1599L59.1359 4.684H59.2079L59.1959 4.54H59.2679V4.504L59.2799 4.48H59.3999L59.3879 4.444L59.3999 4.408L59.6039 4.396L59.5919 4.336H59.7959L59.8199 4.408H59.9519L59.9639 4.48H60.0359V4.54H60.1079L60.1199 4.684H60.1799L60.2039 4.756L60.2639 4.768L60.2999 5.032L60.3599 5.044L60.3839 5.32H60.4559V5.392L60.4679 5.488V5.512L60.5279 5.524L60.5639 5.872H60.5159L60.5039 5.92L60.5159 6.076L60.5279 6.244L60.5519 6.292H60.5999L60.6839 7.276H60.6359L60.6239 7.324L60.6359 7.48L60.6599 7.636L60.6719 7.684H60.7199L60.7679 8.104L60.8279 8.116L60.8399 8.176L60.8519 8.248H60.9119V8.308L61.2839 8.32L61.2719 8.248H61.3319L61.3439 8.32L61.8239 8.308V8.284L61.8359 8.248H62.0399L62.0519 8.32H62.3999V8.392L62.7479 8.38V8.32H62.8079V8.344L62.8199 8.38H62.8799L62.8919 8.344V8.32H63.6479L63.6239 8.068L63.6119 7.828H63.6719L63.6599 7.72L63.6479 7.624L63.7199 7.612L63.6839 7.204L63.7439 7.192L63.7319 7.06L63.7199 6.916H63.6599L63.6119 6.364L63.5399 6.352L63.5279 6.22L63.5159 6.004V5.932H63.5759L63.5639 5.8H63.4919L63.4799 5.668L63.4679 5.5L63.4799 5.452H63.5399L63.4679 4.756H63.4199L63.3959 4.684L63.3599 4.276L63.3239 3.916H63.3959V3.844L63.3839 3.784L63.4439 3.772L63.4559 3.712L63.5159 3.7V3.652L63.5519 3.64H63.5879V3.568L63.6479 3.556V3.508L63.7799 3.496V3.424H64.1279V3.496L64.3319 3.508L64.3559 3.556L64.4879 3.568V3.64H64.5479L64.5719 3.772H64.6319L64.6559 3.844L64.7159 3.856V3.928L64.7399 3.988H64.7879L64.7999 4.048L64.8239 4.18L64.8359 4.264L64.8959 4.276L64.9199 4.48H64.9919V4.612H64.9199L64.9559 4.984L64.9919 5.404V5.452H64.9439L64.9799 5.872L65.0399 5.884L65.0759 6.292H65.0159L65.1599 8.044H65.2199L65.2439 8.2L65.2559 8.404L65.2439 8.452H65.1959L65.2919 9.436H65.3399L65.3519 9.484L65.3999 10.084V10.12H65.3519L65.3759 10.408H65.4239L65.4359 10.468L65.4719 10.876L65.5079 11.236H65.5679L65.5799 11.26V11.296L65.5919 11.416L65.6039 11.524H65.6759L65.6879 11.74H65.6159L65.6639 12.292L65.6039 12.304V12.4L65.6159 12.496L65.4839 12.508L65.4719 12.568L65.4119 12.58V12.64H65.3519L65.3639 12.712V12.772L65.2919 12.784L65.3039 12.856H65.1719L65.1599 12.916L65.1719 12.988L65.1119 13V13.036L65.0999 13.072H64.6199V13L64.5479 12.988L64.5359 12.916V12.856H64.3199L64.3079 12.784H64.0319L63.9959 12.304L63.9239 12.292V12.256L63.9119 12.232H63.8519L63.8399 12.076H63.8999L63.9119 12.052L63.8999 12.016H63.9599L63.9119 11.392H63.9839L63.9719 11.32L63.9839 11.248H64.0319L64.0199 11.044H64.0799L64.0679 10.9H64.0079L63.9479 10.264H63.8879L63.8519 9.988H63.7919L63.7679 9.784H63.4199L63.4319 9.844H63.0959V9.916H63.0239V9.952L63.0119 9.988L62.4479 10H61.9079V10.06H61.3559V10.132H61.2959V10.204H61.2239L61.2359 10.264H61.1759L61.1879 10.408H61.1159L61.1399 10.684H61.2119L61.2239 10.9H61.2839L61.2959 11.044L61.3079 11.176L61.2479 11.188L61.3559 12.364H61.4039L61.4159 12.412L61.4279 12.52L61.4399 12.58H61.5119L61.5359 12.856H61.6079L61.6199 12.988H61.5479L61.5599 13.132H61.4879L61.4999 13.336L61.4399 13.348L61.4519 13.48H61.3799L61.3919 13.552L61.3799 13.612L61.3079 13.624L61.3199 13.696H61.2479V13.756L61.1879 13.768V13.792L61.1999 13.828H61.1279V13.9ZM71.1093 13.3H70.8213V13.228H70.4493V13.156H70.3053V13.084H70.1493V13.012L70.1013 13H69.8613V12.928H69.7173V12.82L69.7053 12.784H69.6453V12.712H69.5733L69.5613 12.64H69.4293L69.4173 12.568H69.3573L69.3453 12.532V12.484H69.2733V12.424L69.1293 12.412V12.34H69.0573V12.208L68.9853 12.196V12.124H68.8413V12.088L68.8293 12.052H68.6853V11.98H68.6133V11.824H68.5413V11.764H68.4693V11.68H68.3973V11.536H68.2533V11.464H68.1693V11.32H68.0973V11.176H68.0253V11.104H67.9653V11.032H67.8933L67.8813 10.996V10.948H67.8093V10.888L67.7373 10.876V10.732H67.6653V10.66H67.5213V10.444H67.4493V10.3L67.3653 10.288V10.156H67.2933V10.012H67.2213V9.856H67.1493V9.556H67.0773V7.732H67.1493V7.66H67.2213V7.288H67.2933V7H67.3653V6.868L67.3773 6.688V6.64L67.4493 6.628V6.484H67.5213V6.412H67.5933V5.98H67.6653V5.908H67.7373V5.68H67.8093V5.536H67.8813L67.8933 5.392L68.0253 5.38V5.32H68.0973L68.1093 5.284V5.248L68.1693 5.236L68.1813 5.176L68.2533 5.164V5.092H68.3253V5.032L68.3973 5.02V4.96H68.4693V4.732H68.5413V4.588H68.6133V4.444H68.6853L68.6973 4.36V4.288H68.7693V4.216H68.9133V4.144H68.9853V4.072L69.1293 4.084H69.2733V4.144H69.3453V4.216H69.4173V4.288H69.4893V4.36L69.6333 4.372L69.6453 4.408V4.444H70.3053V4.504H70.3533L70.6413 4.516H70.8933V4.588H71.1093V4.66H71.3253V4.72L71.5413 4.732V4.804H71.7813L71.8413 4.816V4.876L71.9853 4.888V4.948L72.0573 4.96V5.02L72.1293 5.032V5.092H72.2733V5.236H72.3453L72.3573 5.32V5.392H72.4173V5.428L72.4293 5.464H72.4893L72.5013 5.512V5.68H72.5613L72.5733 5.74V5.908H72.6453V5.98H72.7173V6.052H72.7893V6.184L72.8613 6.196V6.268H72.9333V6.412H73.0053V6.484L73.0773 6.496V6.676L73.0893 6.856H73.1493L73.1613 7.432L73.2213 7.444L73.2333 7.66H73.2933L73.3053 7.804V7.948L73.3653 7.96V8.008L73.3773 8.116V8.164L73.4493 8.176V8.392H73.5093L73.5213 8.452V8.836H73.5933V9.064L73.5813 9.124H73.5213V10L73.4493 10.012V10.312L73.4373 10.36H73.4133L73.3773 10.372V10.66L73.3653 10.948L73.3053 10.96V11.008L73.2933 11.116V11.176H73.2213V11.464H73.1613V11.536H73.0893L73.0773 11.68H73.0173L73.0053 11.728L73.0173 11.8V11.824H72.9333V11.98H72.8613V12.124H72.7893V12.196H72.7173V12.268H72.6453V12.412L72.4293 12.424L72.4173 12.484L72.3573 12.496L72.3453 12.532V12.568H72.2733V12.64H72.2013V12.712H72.1293V12.784H72.0573V12.856H71.9133V12.928H71.7693V13H71.6133V13.084H71.5413V13.156H71.3253V13.216L71.1093 13.228V13.3ZM70.8213 11.464V11.536H71.2533V11.464H71.3973V11.332L71.5413 11.308V11.284L71.5533 11.248H71.6973V11.176H71.7693V11.104H71.9133V10.96L71.9733 10.948L71.9853 10.924V10.888H72.0213L72.0573 10.876V10.66H72.1293L72.1413 10.372L72.2013 10.36V10.288H72.2733V9.412H72.2013V8.908H72.1293V8.248L72.0573 8.236V7.864L72.0453 7.804H71.9973L71.9853 7.744V7.36H71.9133V7.144H71.8413V7.108L71.8293 7.072H71.7693V6.856H71.6973V6.784H71.6253L71.6133 6.628H71.5413V6.556H71.4693V6.484H71.3253V6.424L71.1813 6.412L71.1693 6.34H71.0373V6.304L71.0253 6.268H70.9653L70.9533 6.232V6.196L70.8213 6.184V6.124H70.6653V6.196H69.9333L69.9213 6.268H69.7893V6.328L69.6453 6.34V6.376L69.6333 6.412L69.5733 6.424L69.5613 6.448V6.484H69.3453V6.556H69.2013V6.628H69.1413L69.1173 6.772H69.0573V6.928H68.9853V7.072H68.9133V7.36H68.8413V7.408L68.8293 7.48V7.504H68.7693V7.576L68.7573 7.66H68.6853V7.96H68.6133V8.308L68.5413 8.32V8.536H68.6133V8.896L68.6853 8.908V9.112L68.7333 9.124H68.7693V9.412H68.8413V9.484H68.9133V9.64H68.9853V9.856H69.0573V10L69.1293 10.012V10.084H69.2013V10.216L69.2733 10.228V10.288H69.3453V10.36H69.4893V10.444L69.5013 10.516H69.5613L69.5733 10.66H69.7173V10.732H69.8613V10.804H70.0053V10.852L70.0173 10.888H70.0773V10.96H70.1493V11.104H70.3053V11.176H70.4493V11.248H70.5933V11.32H70.6653V11.464H70.8213ZM77.537 13.264H77.393V13.204L77.321 13.192V13.132L77.249 13.12V13.06L77.117 13.048V13L77.045 12.988V12.916L77.033 12.844H76.973V12.784L76.829 12.772V12.568H76.757V12.424H76.685V12.22H76.625V12.184L76.613 12.148L76.541 12.136V12.004H76.481V11.86H76.409V11.728H76.337V11.656L76.265 11.644V11.44H76.193V11.296H76.121V11.164H76.061V11.128L76.049 11.092H75.989V10.864L75.977 10.816L75.917 10.804V10.528H75.845V10.312H75.773V10.18H75.713V10.132L75.701 10.024V9.964H75.629V9.748H75.557V9.472H75.497V9.4L75.485 9.328H75.413V9.124H75.353V8.836H75.281V8.62H75.221L75.209 8.572V8.416H75.149L75.137 8.272H75.065V8.068H75.005L74.993 7.996V7.924L74.933 7.912V7.708H74.861L74.849 7.504H74.789V7.432H74.717V7.216H74.645V7.156L74.573 7.144V6.94L74.513 6.928L74.501 6.796H74.441V6.592H74.369V6.508H74.297V6.304H74.225V6.232H74.153V6.028H74.081V5.956H74.009V5.812H73.937V5.668H73.877V5.524H73.805V5.464L73.733 5.452V5.248H73.661V5.176H73.589V4.756H73.661V4.336H73.733V4.264H73.805V4.12H73.865L73.877 4.084V4.048H73.937V3.988L74.081 3.976V3.94L74.093 3.916H74.141L74.153 3.88V3.856L74.225 3.844H74.609L74.717 3.856V3.916H74.789V3.988H74.849V4.048L74.933 4.06V4.12H74.993V4.156L75.005 4.192H75.065V4.336H75.137V4.408H75.209V4.612L75.281 4.624V4.756H75.353V4.9H75.485L75.497 4.96L75.557 4.972V5.068L75.569 5.176L75.629 5.188V5.524H75.701V5.74H75.773V5.884H75.833L75.845 5.932V6.088H75.917V6.232H75.977L75.989 6.376H76.049V6.508L76.121 6.52V6.664H76.193V6.796H76.265V6.94H76.325L76.337 7.012V7.084H76.409V7.216L76.469 7.228V7.432L76.481 7.648H76.541V7.852H76.613L76.625 7.924V7.996H76.685V8.212H76.757V8.548L76.829 8.56V8.764L76.889 8.776L76.901 8.824V9.124H76.973V9.256H77.033V9.4H77.105V9.472H77.189V9.532L77.249 9.544V9.688H77.597V9.544H77.669V9.34L77.741 9.328L77.753 9.124H77.813V8.704H77.885V8.344H77.957V7.996H78.017L78.029 7.936V7.216H78.101V6.796H78.161V6.724H78.101V6.664L78.161 6.652V6.304H78.233V6.004L78.245 5.956H78.305V5.464H78.365L78.377 5.404V5.116L78.437 5.104L78.449 4.9H78.521V4.756H78.581L78.593 4.684H78.665V4.612H78.725V4.552H78.797V4.48H78.869V4.42L79.289 4.408V4.444L79.301 4.48H79.361V4.552H79.433V4.612L79.565 4.624L79.577 4.684H79.637L79.649 4.756H79.709V4.96H79.781V5.176H79.841L79.853 5.248V5.74H79.793L79.781 5.8L79.709 5.812V5.944L79.649 5.956L79.637 6.16H79.577V6.304H79.505V6.604L79.493 6.652H79.433V7.144H79.397L79.373 7.156L79.361 7.432V7.708H79.289V7.912L79.217 7.924V8.212H79.157V8.26L79.145 8.608V8.908H79.085L79.073 9.4H79.013V9.676L79.001 9.964H78.941V10.396L78.929 10.456H78.869V10.732H78.797V11.092H78.725V11.224H78.665L78.653 11.284V11.44H78.593L78.581 11.728H78.521L78.509 11.932H78.449V12.136H78.377V12.208L78.365 12.28H78.317L78.305 12.352V12.424H78.233V12.484L78.173 12.496L78.161 12.532V12.568H78.101V12.7L78.029 12.712L78.017 12.748V12.784H77.885V12.844H77.813V12.988H77.741V13.06H77.669V13.132H77.597V13.204H77.537V13.264ZM84.67 13.36H84.478V13.288H84.022V13.228H83.71V13.168H83.518V13.108L83.326 13.096V13.036H82.546V12.976H82.45L82.426 12.964V12.94L82.414 12.916L82.354 12.904V12.844H82.294V12.784H82.222V12.712H82.162V12.652H82.102L82.09 12.616V12.592L82.03 12.58V12.46H81.97V12.196H81.898V12.076H81.838V11.944H81.778V11.752H81.706V11.5L81.778 11.488V11.368L81.706 11.356V10.984L81.646 10.972V10.72H81.706V10.144H81.646V9.82H81.706V9.304H81.646V9.04H81.586V9.004L81.574 8.74V8.524H81.514V8.464H81.574V8.08H81.514V7.624H81.574V7.432H81.514V7.12L81.454 7.108V6.976H81.394L81.382 6.856H81.322V6.724H81.262V6.472H81.322V6.148H81.394L81.382 6.016H81.322V5.884H81.262V5.824H81.202V5.248L81.262 5.236V5.176H81.322V5.116H81.394V4.996H81.454V4.924H81.514V4.852H81.574V4.792H81.706V4.732H81.97V4.672L82.102 4.66V4.6H82.162V4.54H82.294V4.468H82.426V4.408H83.194V4.468H84.154L84.166 4.444V4.408L84.418 4.42V4.468L85.054 4.48V4.54H85.378V4.6H85.51L85.57 4.612V4.66L85.762 4.672V4.732H85.954V4.792H86.026V4.852L86.086 4.864V4.924H86.146V4.96L86.158 4.984L86.278 4.996V5.044L86.35 5.056V5.308H86.278V5.44H86.218V5.56L86.086 5.572V5.632H85.894V5.692H85.678L85.642 5.704V5.764H84.538V5.824H84.49V5.788L84.478 5.764H84.286V5.812L84.274 5.824H83.254V5.884L82.87 5.896V5.944H82.798L82.714 5.956H82.678V6.724H82.738V7.3L82.798 7.312L82.81 7.624H82.87V7.888H82.93V7.948H82.99V8.008H83.062V8.08H83.326V8.14H83.374L83.722 8.152H84.022V8.212H84.874V8.152H85.318V8.08H85.642V8.14L85.702 8.152V8.212H85.762V8.332H85.822V8.368L85.834 8.404H85.966V8.464H86.026V8.596H86.086V8.848H86.026V8.98H85.966V9.016L85.954 9.04H85.894V9.112H85.822V9.172H85.762V9.232H85.738L85.678 9.244H85.642V9.304H85.57V9.364H85.054V9.424H84.55V9.484L84.502 9.496H84.094V9.556H84.022L83.902 9.568H83.698V9.592L83.71 9.616L83.446 9.628V9.688L83.314 9.7V9.748H83.194V9.88H83.134V10.132H83.122L83.086 10.144H83.062V10.588L83.122 10.6V10.636L83.134 10.828V10.984H83.194V11.296H83.254V11.428H83.314L83.326 11.56H83.446V11.62H83.578V11.68L83.842 11.692V11.752H84.094V11.812H84.226V11.884H84.418V11.944H85.894V11.884L86.026 11.872V11.812H86.146V11.788L86.158 11.752H86.41L86.47 11.764L86.482 11.788V11.812H86.602V11.884H86.674V11.944H86.734V12.004L86.794 12.016V12.148L86.806 12.196H86.854L86.866 12.232V12.268H86.914V12.388H86.866V12.46L86.854 12.52H86.806L86.794 12.568V12.724H86.734L86.722 12.844L86.674 12.856V12.904L86.602 12.916V12.964L86.47 12.976V13.036H86.35V13.108H86.146V13.168H86.086V13.228L85.834 13.24L85.822 13.264V13.288H85.51V13.348L85.462 13.36H85.162L85.126 13.348V13.3L84.67 13.288V13.36ZM89.9029 13H89.6269V12.94H89.2309V12.88H89.1709V12.82H89.1109V12.784L89.0989 12.748H89.0389V12.484H88.9669V12.016H88.9069V11.344H88.8349V11.152H88.8949L88.9069 11.14V10.42H88.8349V10.36H88.8949L88.9069 10.288V10.096L88.8349 10.084V10.024H88.9069V9.616L88.8949 9.556H88.8349V9.424H88.7749V9.292H88.8349V8.632L88.9069 8.62V8.5L88.8349 8.488V8.164H88.7749V8.092L88.7629 7.936V7.756H88.7029V7.708L88.6429 7.696V7.636H88.5709V7.564H88.5109V7.504H88.4389V7.432H88.3069V7.36H88.2469V7.168H88.1749V6.952L88.1629 6.904H88.1149L88.1029 6.772H88.1629L88.1749 6.724V6.508H88.2349V6.376L88.2469 6.232H88.3069V6.112H88.3669L88.3789 6.076V6.04H88.4389V5.908H88.4989L88.5109 5.776V5.512H88.5589L88.5829 5.368H88.6429V5.308H88.8349V5.248L88.9669 5.236V5.212L88.9789 5.188L89.1109 5.176V5.104H89.1709V5.044H89.2309V5.008L89.2429 4.984L89.3749 4.972V4.912H89.4949L89.5069 4.876V4.852H89.5669V4.78H89.6989V4.708H89.8309L89.8429 4.648H89.9029V4.576H90.0349V4.516H90.2989V4.444H90.5629V4.384H90.8269V4.312H92.0989V4.384H92.2189V4.432L92.3029 4.444H92.4109L92.4229 4.456V4.516H92.7469V4.576L92.8789 4.588L92.8909 4.648H92.9509V4.708H93.1549V4.78H93.2149L93.2269 4.804V4.84L93.2869 4.852V4.912H93.4189V4.972H93.5389L93.5509 5.008V5.044H93.6109L93.6229 5.104L93.6829 5.116V5.176H93.7429L93.7549 5.308H93.8149V5.356L93.8269 5.428L93.8509 5.44H93.8749V5.5L93.9469 5.512V5.572H94.0069L94.0189 5.632L94.0789 5.644L94.0909 5.704V5.764L94.1509 5.776V5.836H94.2109V5.92L94.2229 6.016V6.04H94.2709L94.2829 6.064V6.196L94.2949 6.304H94.3429L94.3549 6.64H94.4149V7.504H94.3429V8.032H94.2829V8.164L94.2229 8.176L94.2109 8.368H94.1509V8.428H94.0909L94.0789 8.56H94.0189V8.764H93.9469V8.884L93.8869 8.896V8.932L93.8749 8.956H93.8149V9.028H93.7549V9.064L93.7429 9.088L93.6829 9.1V9.22H93.5509V9.292H93.4789V9.364H93.4189V9.496H93.3589V9.556H93.2869L93.2749 9.628H93.2269V9.664L93.2149 9.688H93.1549V10.024H93.2869V10.084H93.4189V10.216L93.5509 10.228V10.288H93.6109V10.324L93.6229 10.36H93.6829V10.42L93.7429 10.432L93.7549 10.456V10.48H93.8749V10.552H94.0189V10.624H94.0789L94.0909 10.684H94.1509V10.756H94.2109L94.2229 10.816V10.876L94.2829 10.888V10.96H94.3429V11.02H94.4749L94.4869 11.08H94.5469V11.152H94.6069L94.6189 11.284H94.6789V11.356H94.7389L94.7509 11.488V11.62H94.8229V11.68H94.8829V11.752H94.9429V12.412H94.8829L94.8709 12.604L94.8229 12.616V12.676H94.7869L94.7269 12.688H94.6789V12.736L94.5469 12.748V12.808H94.2229V12.748H94.1509V12.688H94.1029L94.0429 12.676H94.0189V12.616L93.8869 12.604V12.556L93.8149 12.544V12.484H93.6829V12.412H93.4909L93.4789 12.352H93.4189V12.22H93.3589V12.16L93.2269 12.148V12.112L93.2149 12.088H93.1549V12.016H93.0229V11.944H92.9629V11.884H92.8909V11.824L92.8309 11.812V11.788L92.8189 11.752H92.7589V11.692L92.6989 11.68L92.6869 11.656V11.62L92.5549 11.608V11.488H92.4949V11.452L92.4709 11.416H92.4229V11.356H92.2309V11.284H92.0749L92.0269 11.272V11.224L91.9549 11.212V11.152H91.8949V11.092L91.7629 11.08V11.02H91.5589V10.96H91.2229V10.888H91.1029V10.852L91.0909 10.828L90.9709 10.816V10.756H90.8269V10.684H90.6949V10.624H90.3589V10.756H90.2989V11.212L90.3589 11.224V11.356L90.3709 11.512V11.536L90.4309 11.548V11.872L90.3709 11.884V11.944L90.4309 11.956V12.352H90.3589V12.544H90.2989V12.676H90.1669V12.82H90.0949V12.88H90.0349V12.94H89.9029V13ZM90.4309 9.16V9.22H90.5749V9.16H90.6949V9.1L90.8989 9.088V9.04L91.0309 9.028V8.956H91.3669V8.896L91.4989 8.884V8.824H91.5589V8.764H91.6909V8.704H91.8829L92.1229 8.692H92.1589V8.632H92.3509V8.56H92.4229V8.5H92.4709L92.5309 8.488H92.5549V8.428H92.6269V8.368H92.6869V8.332L92.6989 8.296H92.7469L92.7589 8.236V8.164H92.8189V8.092H92.8909V8.032L92.9029 7.972L92.9509 7.96L92.9629 7.828H93.0229V7.036H92.9629V6.64H92.8909L92.8789 6.508L92.8189 6.496V6.376L92.7589 6.364V6.34L92.7469 6.316L92.6989 6.304H92.5549V6.232H92.2309V6.172H92.0989V6.1H92.0269V6.04H91.9549V5.98H91.8349V5.944L91.8229 5.908H91.7029L91.6909 5.848L91.4269 5.836V5.776H91.3549L91.2349 5.764L91.1629 5.776V5.836H90.8989V5.908H90.7669L90.7549 5.944V5.98H90.5029V6.004L90.4909 6.04H90.3589V6.1L90.2989 6.112V6.172H90.2389V6.304H90.1669V6.496L90.1069 6.508L90.0949 7.036H90.1669V7.564H90.2269L90.2389 8.956H90.2989V9.028H90.3589V9.16H90.4309ZM102.949 13.96H102.697V13.9L102.637 13.888L102.625 13.864V13.828H102.565V13.768H102.493V13.708H102.433V13.312H102.373V13.06L102.313 13.048L102.301 12.724H102.253L102.241 12.604H102.169V12.28H102.109V10.588H102.049V10.06L102.037 9.472V9.424H101.977V8.452H101.917V8.26H101.977V8.008H101.917V7.936L101.905 7.876L101.857 7.864L101.845 7.54V7.228H101.785V6.64H101.725V6.484L101.713 6.292V6.256H101.653V6.004H101.593V5.548L101.533 5.536L101.521 5.38V5.224L101.593 5.212V5.032H101.653V4.648L101.725 4.636V4.576H101.845V4.516L101.917 4.504V4.444H101.977V4.384H102.373V4.444H102.433V4.468L102.445 4.504H102.529L102.565 4.516V4.576H102.625V4.624L102.757 4.648V4.708H102.949V4.768H103.081V4.816L103.213 4.84V4.9H103.273V4.924L103.285 4.96L103.333 4.972L103.345 5.092H103.405V5.116L103.417 5.152L103.465 5.164L103.477 5.284L103.537 5.296V5.356H103.597V5.548H103.657V5.68H103.729V5.812H103.789V5.932H103.861V6.124H103.921V6.256H103.981V6.316L103.993 6.376L104.053 6.388V6.46H104.113V6.532L104.125 6.628L104.149 6.64L104.173 6.664L104.185 6.76V6.832H104.245V6.964H104.305V6.988L104.317 7.06L104.353 7.096H104.377V7.228H104.437V7.42H104.509V7.492H104.569V7.612H104.641V7.684H104.701V7.876H104.761L104.773 8.008H104.833V8.068H104.893L104.905 8.26L104.953 8.272L104.965 8.392H105.085V8.452H105.217V8.524H105.349V8.584H105.541V8.524H105.673V8.488L105.685 8.452H105.805V8.392H105.865V8.332L105.877 8.26H105.901L105.937 8.224V8.2H105.997V8.14H106.057V8.008L106.129 7.996V7.936H106.189V7.816H106.249L106.261 7.684H106.381V7.636L106.393 7.576L106.417 7.552H106.453V7.42H106.513V7.36H106.573V7.288L106.585 7.228H106.645V7.168L106.777 7.156V7.036H106.837V7L106.849 6.964H106.909V6.904H106.969V6.832L106.981 6.772H107.005L107.029 6.736L107.065 6.712L107.137 6.64H107.161V6.58H107.197L107.233 6.556V6.46L107.293 6.448V6.388H107.353V6.196L107.425 6.184V6.16L107.461 6.124H107.485V6.064H107.545L107.569 5.932H107.617V5.872H107.677V5.68L107.749 5.668V5.548H107.809V5.416H107.881V5.296L107.941 5.284V5.224H108.001V5.164H108.061V5.128L108.073 5.092H108.133V5.032H108.193V4.996L108.205 4.96H108.325V4.9H108.781L108.793 4.96V5.02L108.841 5.032V5.092H108.913L108.925 5.116L108.937 5.152L109.009 5.164H109.045V5.224H109.105L109.117 5.284V5.344L109.165 5.356V5.416H109.225L109.237 5.452V5.872H109.297V6.124H109.357V6.232L109.369 6.4L109.381 6.46H109.393L109.429 6.496V6.904H109.489V6.988L109.501 7.12L109.513 7.168H109.549L109.561 7.204V7.42H109.621L109.633 7.936L109.681 7.948V8.2H109.633V8.512L109.681 8.524V8.836L109.693 9.184L109.705 9.232H109.753L109.765 10.264H109.813V11.236H109.873L109.885 11.284V11.392L109.873 11.44H109.849L109.825 11.476L109.813 11.692V11.884H109.765V11.92L109.753 11.956H109.681V12.076H109.501V12.112L109.489 12.148H109.429V12.208H109.381L109.369 12.268L109.357 12.352V12.4H109.309L109.297 12.532H109.237V12.592L109.045 12.604V12.652L108.841 12.664V12.724L108.805 12.736L108.745 12.724H108.709V12.664H108.649V12.604L108.529 12.592L108.517 12.568V12.532H108.457V12.4H108.397V12.22L108.385 12.148H108.325V12.016H108.265V11.824H108.193L108.205 11.572L108.265 11.56V11.5H108.325V10.984H108.385L108.397 10.924V10.468L108.385 10.036V10H108.325V8.644H108.265V8.392L108.205 8.38L108.193 8.128H108.133V7.876L108.013 7.864L108.001 7.84V7.816H107.941V7.876H107.809V7.936H107.785L107.749 7.972V7.996L107.677 8.008V8.068H107.617V8.2H107.485V8.32H107.425V8.44L107.293 8.452V8.584H107.233L107.221 8.62V8.644H107.161V8.704L107.029 8.716V8.776H106.969V8.968H106.909V9.16L106.837 9.172V9.232H106.717L106.705 9.268V9.292H106.645V9.364H106.573V9.424H106.549L106.513 9.46L106.489 9.496L106.453 9.52V9.544L106.381 9.556V9.616H106.333L106.321 9.652V9.688H106.261L106.249 9.724L106.225 9.748H106.201L106.189 9.784V9.82H106.129V9.88H106.057V9.94L105.937 9.952V10L105.805 10.012V10.072H105.733V10.144H105.673V10.204H105.409V10.264H104.701V10.204H104.641V10.132H104.569V10.012L104.449 10V9.904L104.413 9.88H104.377V9.82H104.245V9.748L104.185 9.736L104.173 9.712V9.688H104.053V9.556H103.993V9.532L103.957 9.496L103.933 9.484L103.921 9.46V9.424H103.861V9.292H103.801L103.789 9.232H103.477L103.465 9.748H103.405V10.588H103.465V10.828L103.477 11.092L103.513 11.116H103.537V11.308H103.597L103.609 11.692L103.657 11.704V11.884H103.729V12.148H103.789V12.796H103.729V13.12H103.657V13.18H103.633L103.561 13.252H103.537V13.372H103.477L103.465 13.408V13.444H103.405V13.576H103.333V13.636H103.213V13.696L103.141 13.708V13.768H103.081V13.828H103.021L103.009 13.864V13.9H102.949V13.96ZM115.022 13.36H114.83V13.288H114.374V13.228H114.062V13.168H113.87V13.108L113.678 13.096V13.036H112.898V12.976H112.802L112.778 12.964V12.94L112.766 12.916L112.706 12.904V12.844H112.646V12.784H112.574V12.712H112.514V12.652H112.454L112.442 12.616V12.592L112.382 12.58V12.46H112.322V12.196H112.25V12.076H112.19V11.944H112.13V11.752H112.058V11.5L112.13 11.488V11.368L112.058 11.356V10.984L111.998 10.972V10.72H112.058V10.144H111.998V9.82H112.058V9.304H111.998V9.04H111.938V9.004L111.926 8.74V8.524H111.866V8.464H111.926V8.08H111.866V7.624H111.926V7.432H111.866V7.12L111.806 7.108V6.976H111.746L111.734 6.856H111.674V6.724H111.614V6.472H111.674V6.148H111.746L111.734 6.016H111.674V5.884H111.614V5.824H111.554V5.248L111.614 5.236V5.176H111.674V5.116H111.746V4.996H111.806V4.924H111.866V4.852H111.926V4.792L112.058 4.792V4.732H112.322V4.672L112.454 4.66V4.6H112.514V4.54H112.646V4.468H112.778V4.408H113.546V4.468H114.506L114.518 4.444V4.408L114.77 4.42V4.468L115.406 4.48V4.54H115.73V4.6H115.862L115.922 4.612V4.66L116.114 4.672V4.732H116.306V4.792H116.378V4.852L116.438 4.864V4.924H116.498V4.96L116.51 4.984L116.63 4.996V5.044L116.702 5.056V5.308H116.63V5.44H116.57V5.56L116.438 5.572V5.632H116.246V5.692H116.03L115.994 5.704V5.764H114.89V5.824H114.842V5.788L114.83 5.764H114.638V5.812L114.626 5.824H113.606V5.884L113.222 5.896V5.944H113.15L113.066 5.956H113.03V6.724H113.09V7.3L113.15 7.312L113.162 7.624H113.222V7.888H113.282V7.948H113.342V8.008H113.414V8.08H113.678V8.14H113.726L114.074 8.152H114.374V8.212H115.226V8.152H115.67V8.08H115.994V8.14L116.054 8.152V8.212H116.114V8.332H116.174V8.368L116.186 8.404H116.318V8.464H116.378V8.596H116.438V8.848H116.378V8.98H116.318V9.016L116.306 9.04H116.246V9.112H116.174V9.172H116.114V9.232H116.09L116.03 9.244H115.994V9.304H115.922V9.364H115.406V9.424H114.902V9.484L114.854 9.496H114.446V9.556H114.374L114.254 9.568H114.05V9.592L114.062 9.616L113.798 9.628V9.688L113.666 9.7V9.748H113.546V9.88H113.486V10.132H113.474L113.438 10.144H113.414V10.588L113.474 10.6V10.636L113.486 10.828V10.984H113.546V11.296H113.606V11.428H113.666L113.678 11.56H113.798V11.62H113.93V11.68L114.194 11.692V11.752H114.446V11.812H114.578V11.884H114.77V11.944H116.246V11.884L116.378 11.872V11.812H116.498V11.788L116.51 11.752H116.762L116.822 11.764L116.834 11.788V11.812H116.954V11.884H117.026V11.944H117.086V12.004L117.146 12.016V12.148L117.158 12.196H117.206L117.218 12.232V12.268H117.266V12.388H117.218V12.46L117.206 12.52H117.158L117.146 12.568V12.724H117.086L117.074 12.844L117.026 12.856V12.904L116.954 12.916V12.964L116.822 12.976V13.036H116.702V13.108H116.498V13.168H116.438V13.228L116.186 13.24L116.174 13.264V13.288H115.862V13.348L115.814 13.36H115.514L115.478 13.348V13.3L115.022 13.288V13.36ZM119.726 9.772H119.51L119.498 9.724H119.39V9.676H119.33V9.628H119.27V9.532H119.21L119.198 9.436H119.15L119.102 8.956H119.054L119.018 8.572H118.97L118.958 8.524H119.018L118.994 8.284H118.946L118.934 8.188H118.874L118.862 8.044H118.922L118.91 7.852H118.85V7.816H118.898V7.768H118.85L118.814 7.336H118.754L118.742 7.144H118.79L118.778 6.904H118.718L118.706 6.712H118.754L118.742 6.568H118.694L118.682 6.472H118.634L118.574 5.848H118.526L118.478 5.332H118.538L118.478 4.612H118.538L118.526 4.468H118.574V4.42H118.682V4.372H118.79V4.324H118.898V4.276H119.066V4.324H119.294V4.36L119.402 4.372V4.42H119.462V4.468H119.522V4.516H119.582V4.564H119.642L119.738 5.752H119.798L119.81 5.992H119.87L119.906 6.424H119.954L120.002 6.904H120.05L120.074 7.144H120.014L120.026 7.192H120.074L120.122 7.816H120.182L120.302 9.292H120.242L120.254 9.388H120.194L120.206 9.484H120.146L120.158 9.58H120.05V9.628H119.99L120.002 9.676H119.882L119.894 9.724H119.726V9.772ZM120.05 13.06H119.774V13.024H119.654V12.976H119.594V12.916H119.534V12.88H119.474V12.832H119.426L119.414 12.784L119.366 12.772L119.354 12.688L119.306 12.676L119.294 12.652L119.258 12.208H119.198L119.186 11.92H119.126L119.114 11.776H119.174L119.162 11.68H119.222L119.21 11.632H119.27L119.258 11.536H119.318L119.306 11.488H119.426L119.414 11.44H119.474V11.392H119.522V11.344H119.69V11.296H119.774L119.858 11.308V11.344H120.026V11.392H120.086V11.44H120.194L120.206 11.488H120.254L120.266 11.536H120.314V11.584H120.374V11.632H120.434V11.68H120.554V11.776H120.614L120.638 12.088L120.662 12.412L120.65 12.436L120.614 12.448V12.544H120.566V12.592L120.554 12.64H120.518L120.53 12.736H120.47V12.82L120.362 12.832V12.868L120.314 12.88V12.916L120.266 12.928V12.976H120.206L120.218 13.024H120.05V13.06ZM23.7855 32.188H23.4255V32.116H23.3055V32.056L23.1855 32.044V31.984H23.1135V31.912H23.0535V31.852L22.9935 31.84V31.78H22.8735L22.8615 31.708H22.8135V31.636H22.7415V31.576L22.6215 31.564V31.504H22.4415L22.4295 31.48V31.444H22.2615V31.372H22.1895V31.3H22.0695V31.276L22.0575 31.24H22.0455L22.0215 31.228H22.0095V31.168H21.9375V31.096H21.8775V31.024H21.8175V30.964H21.7575V30.832L21.6975 30.82L21.6855 30.76H21.6375V30.688H21.5655V30.616H21.5175V30.484H21.4455V30.424L21.3855 30.412V30.352H21.3255V30.208H21.2655V30.076H21.1935V29.956H21.1455V29.8H21.0735V29.752H21.0255V29.716L21.0135 29.68H20.9535V29.62L20.8935 29.596V29.476H20.8455V29.404H20.7735V29.344H20.7135V29.212H20.6535L20.6415 29.14H20.5935V29.068H20.5215V28.936H20.4735L20.4615 28.864V28.804H20.4015V28.66H20.3415V28.468L20.2695 28.456V28.12H20.2215V26.968L20.2695 26.956V26.824H20.3415V26.62H20.3895V26.572H20.3415V25.96H20.3895L20.4015 25.9V25.624H20.4615V25.468L20.4735 25.42H20.5215V25.216H20.5935V24.94H20.6415V24.868L20.6535 24.808H20.7135V24.532H20.7735V24.388H20.8455V24.124H20.8935V23.992H20.9415L20.9535 23.872L21.0255 23.848V23.596H21.0735V23.392H21.1455V23.26L21.1935 23.248V23.188H21.2655V23.116H21.3255V23.056H21.3855V22.912H21.4455V22.708H21.5175V22.576H21.5655V22.516L21.6375 22.504V22.444H21.7575V22.372H21.8175V22.312H21.8775L21.8895 22.264V22.24H21.9375V22.192L21.9495 22.168H22.0095V22.096H22.0575L22.0695 22.036H22.1295V21.964H22.1895V21.904L22.2615 21.892V21.832H22.4295L22.4415 21.76H22.5615V21.688H22.6095L22.6215 21.628H22.7415V21.556H23.1735L23.1855 21.628H23.3535V21.688H23.3655L23.3895 21.7H23.4255V21.76H23.4855V21.832H23.5335V22.3L23.4855 22.312V22.504L23.4255 22.516V22.708L23.3535 22.72V22.852H23.3055V22.912H23.1135V22.984H22.9935V23.056H22.8615V23.116H22.8135V23.188H22.6815V23.32H22.6095V23.392H22.4895V23.44L22.4415 23.464L22.4295 23.512H22.3695V23.596H22.3095V23.644L22.2615 23.668V23.716H22.1895V24.016L22.1775 24.052H22.1295V24.184L22.0695 24.196V24.232L22.0575 24.256L22.0095 24.268V24.46H21.9375V24.868H21.8895L21.8775 25.276H21.8175V25.552H21.7575V25.684H21.6975V26.032H21.6375V26.62H21.5655V27.232H21.6375V27.58H21.6855L21.6975 27.784H21.7575V27.916L21.7695 28.048L21.8175 28.06V28.252L21.8775 28.264V28.324H21.9375V28.396H22.0095V28.528H22.0575V28.6H22.1295V28.66L22.1895 28.672V28.732H22.2615V28.864H22.3095V29.008H22.3695V29.068H22.4295L22.4415 29.14V29.212H22.4895V29.272H22.5615V29.344H22.6215V29.404H22.6815V29.476L22.7415 29.488V29.596L22.8135 29.62V29.68H22.8615V29.8L22.9335 29.824V29.872H22.9935V29.956H23.0535V30.004L23.1135 30.028V30.076H23.1855V30.148H23.2335V30.208H23.3535V30.28H23.4855V30.352H23.6055V30.412H23.7255V30.484H23.8575V30.556H23.9775V30.616H24.0255L24.0375 30.688H24.1575V30.76H24.2295V30.82L24.2775 30.832V30.964H24.3495V31.096H24.4095V31.576H24.3495V31.636H24.2775V31.708H24.2295V31.78H24.1575V31.84H24.0975V31.912H24.0375V31.984H23.9775V32.044L23.9055 32.056V32.104L23.7855 32.116V32.188ZM27.3181 31.432H27.2941L27.2821 31.408V31.384L27.1861 31.372V31.324H27.1141V31.252H26.8621L26.8501 31.072L26.7781 31.048V30.94H26.6941V30.556H26.5981V29.98H26.5381V29.608H26.5981V29.548H26.5381V29.164H26.4781V29.104L26.4661 28.768V28.456H26.4181V28.336H26.4661V28.144H26.4181V27.256H26.3461V26.5H26.2861V26.188L26.2261 26.176V25.744H26.1661V25.348L26.1541 25.3H26.0941V24.976H26.0341V24.664H25.9621V24.412H25.9141L25.9021 24.364V24.1H25.8421L25.8301 23.908H25.7821V23.776H25.7101V23.392H25.6501V23.272L25.6021 23.26V23.224L25.5781 23.128V23.092H25.5301V22.636H25.5781V22.588L25.6021 22.492V22.456H25.6501V22.384H25.7101V22.324H25.7821V22.252H25.8301V22.132H25.9741V22.072H26.3941V22.132H26.9341V22.072L27.0661 22.06V22H27.1981V21.952L27.2221 21.94V21.868H27.4261V21.82H27.6901L27.7141 21.748H27.9781V21.688H29.7541V21.748H29.8861V21.82H30.0421V21.868H30.2581V21.94L30.3421 21.952V22H30.4021V22.072H30.4621V22.132H30.6181V22.204H30.7021V22.252L30.7741 22.264V22.324H30.8341L30.8581 22.372L30.9181 22.384V22.456H30.9781L30.9901 22.576H31.0741V22.636H31.1221V22.828H31.2061V22.888H31.2901V23.08L31.3381 23.092L31.3621 23.14V23.212H31.4341L31.4461 23.392H31.4941V23.596L31.5061 23.86V23.884L31.5661 23.908L31.5781 23.944V24.124H31.6381V24.796H31.6981L31.7101 24.868V25.156L31.6981 25.468V25.54H31.6381L31.6261 25.744L31.5661 25.756V26.128L31.4941 26.14V26.296H31.4461V26.356H31.3621L31.3501 26.5H31.3021V26.584H31.2301L31.2181 26.656H31.1701V26.74L31.1461 26.824H31.0981V26.956H30.9541V27.028H30.9061V27.1L30.8221 27.112L30.8101 27.172L30.7501 27.196V27.256H30.6781V27.34H30.6061V27.412H30.5461V27.496H30.4141V27.544L30.2701 27.58V27.628H30.2101V27.664L30.1981 27.712H30.1381V27.784H30.0061V27.868H29.7901V27.916H29.1181V27.868H28.8421V27.796H28.4941V27.736L28.3501 27.724V27.664H28.0861V27.724H28.0141V27.868H27.9661V28.456H28.0141L28.0261 28.612H28.0741L28.0861 28.936L28.1461 28.948V29.008H28.2061V29.296H28.2661V29.476H28.2061V29.836H28.2661V29.86L28.2781 29.956L28.2661 30.064V30.112H28.2061V30.688H28.1461V30.808H28.0861V30.94H28.0021V31H27.9181V31.048L27.7501 31.072V31.12L27.5821 31.132V31.192H27.4861V31.252H27.4261V31.276L27.3901 31.3L27.3301 31.324V31.384L27.3181 31.432ZM28.9861 26.464V26.524H29.5381V26.452H29.6101V26.368H29.7181V26.296H29.8981L29.9221 26.272V26.032H29.9941V25.876H30.0541V25.792H30.0901V25.552H30.1621V25.444L30.1741 25.384H30.0901V25.216H30.0421L30.0301 24.64H29.9701V23.992H29.9221V23.836L29.8741 23.812V23.656H29.7781V23.464H29.7421L29.7301 23.428V23.392H29.6101V23.344H29.4781L29.4661 23.296V23.272H29.3941V23.212H29.0941V23.152L29.0341 23.14H28.5541L28.4941 23.152V23.212H28.4341V23.272H28.1701V23.332H28.1341L27.9781 23.344H27.8701V23.392H27.6901V23.524H27.6181V23.596H27.5821V23.716H27.5101V24.208H27.5701L27.5821 24.592V24.964H27.6301V25.564H27.7141L27.7021 25.588V25.972H27.7741V26.224H27.8461V26.296L27.9061 26.308L27.9181 26.392H27.9781L28.0021 26.428V26.464H28.3141V26.416H28.4941V26.344H28.6621V26.416H28.8661V26.464H28.9861ZM36.1376 31.372H35.7896V31.3H35.5736V31.228H35.0816V31.156H34.7216V31.084H34.5896V31.012H34.5176V30.94H34.4336V30.88H34.3736V30.796H34.3016V30.664H34.2296V30.592H34.1696L34.1576 30.556V30.52H34.0976L34.0856 30.448V30.376H34.0136V30.304H33.9416V30.172L33.8816 30.16L33.8696 30.028L33.8816 29.824V29.752H33.9416V29.596H33.8816V29.524L33.8696 29.356V29.176H33.8096V28.828L33.7376 28.816L33.7256 28.612V28.408L33.6776 28.396L33.6656 28.336H33.5936V27.628H33.5216V26.848H33.4496V26.14H33.3896V25.576H33.4496V25.228H33.3896V24.52H33.3056V24.16H33.2456V24.112L33.2336 23.968V23.884H33.1736V23.68L33.1016 23.668V23.392L33.1736 23.38V23.32H33.2336L33.2456 23.248H33.3896V23.176H33.4496V23.104H33.5216V23.032H33.6656V22.96H33.8096V22.9L33.8816 22.888V22.744H33.9416V22.696L34.0136 22.684V22.612H34.0976L34.0856 22.588L34.0976 22.552L34.1336 22.54H34.1576V22.468H34.3736V22.396H35.4296V22.324H35.7896V22.252H36.0656V22.192H36.4136L36.4256 22.156V22.12H36.7736V22.048H36.9776V21.976H37.6136L37.6256 22.048L37.6856 22.06V22.12H37.8296V22.18L37.9616 22.192L37.9736 22.324L38.0456 22.336V22.396H38.1056V22.468L38.1776 22.48V22.684L38.1536 22.672L38.1296 22.684H38.1056V22.828H38.0456V23.032H37.9736L37.9616 23.176H37.8296V23.248H37.6856V23.32H37.4696V23.38H37.1936V23.452L36.7736 23.464L36.7616 23.536H36.4256L36.4136 23.572V23.596L35.6456 23.608L35.6336 23.632V23.668H35.4296V23.74H35.2136V23.812H35.0816V23.884L35.0096 23.896V24.604H35.0696V24.64L35.0816 24.772L35.0696 24.892V24.94H35.0096V25.372H35.0696V25.42L35.0816 25.732V26.008H35.1416V26.14H35.2136V26.284H35.4296V26.356H35.6336V26.284H35.8496L35.8616 26.356H35.9216V26.284H36.4256V26.344L36.4856 26.356H36.7736V26.284H36.9776V26.224H37.1936V26.14H37.5416V26.2L37.6856 26.224V26.284H37.8296V26.356H37.9616V26.428H38.0456V26.572H38.1056V26.848H38.0456V26.92L38.0336 26.992H37.9616V27.064H37.8896V27.136H37.8296V27.196L37.7696 27.208L37.7576 27.256V27.352H37.5416V27.412H37.3976L37.3376 27.424V27.484H37.1936V27.556H36.9176V27.628H36.7736L36.7616 27.652V27.688H36.4616L36.3176 27.7H36.2696V27.772H35.9216V27.832L35.5016 27.844V27.904H35.4296V27.976H35.3576V28.408H35.4296V28.972H35.5016V29.104L35.5616 29.116L35.5736 29.176H35.6336V29.26H35.7176V29.392H35.7776V29.464L35.7896 29.524L35.8496 29.536V29.68H36.0536L36.0656 29.74L37.1936 29.752V29.68L38.0456 29.668V29.608H38.3216V29.68H38.4656V29.74L38.5376 29.752V30.232L38.4656 30.244V30.376H38.3936V30.448H38.3336L38.3216 30.592H38.2616L38.2496 30.664V30.736H38.1776V30.796H38.1056V30.88H37.8896V30.94H37.7576V31.012H37.3376V31.084H37.1216V31.156H36.9776V31.228H36.7736V31.3H36.5576V31.228H36.4856V31.3H36.1376V31.372ZM44.4559 31.312H43.4239L43.3999 31.3V31.252H43.0039V31.18H42.8839V31.108H42.7519V31.048H42.7039L42.6919 31.012V30.976H42.5719V30.904H42.4519V30.832H42.3799V30.772H42.2599V30.7H42.1279V30.628H42.0679V30.496H42.0079V30.424H41.9479V30.364L41.8759 30.352V30.292H41.8279V30.22H41.7559V30.148H41.6239V30.088H41.5759V30.016H41.5039V29.944H41.4439V29.872H41.3119V29.812H41.2519V29.752L41.1919 29.74V29.704L41.1799 29.668H41.1319V29.608H41.0599V29.536H41.0119V29.464L40.9999 29.392H40.9399V29.332H40.8799L40.8679 29.2H40.8199L40.8079 29.128V29.056H40.7599V29.032L40.7719 28.996H40.6879V28.792L40.6279 28.78V28.72H40.5679L40.5559 28.684V28.66L40.5079 28.648L40.4959 28.516H40.4359V28.444H40.3879L40.3759 28.408V28.384H40.3039V28.228H40.2679L40.2439 28.108H40.1959V27.964H40.1359V27.904L40.1239 27.832L40.0639 27.82L40.0519 27.688H40.0039V27.628H39.9439V27.58L39.9319 27.472V27.424H39.8839L39.8719 27.364V26.728H39.8239L39.8119 26.692V26.116H39.7519V26.056L39.7399 25.684V25.372L39.7999 25.36V25.144L39.8119 25.096H39.8599V24.82H39.9319V24.616H39.9919V24.388L40.0039 24.34H40.0639V24.064H40.1239V23.932L40.1119 23.86H40.0639V23.596L40.1239 23.584V23.524H40.3039L40.3159 23.488V23.452L40.3759 23.44V23.38H40.4359V23.248H40.5559V23.176L40.5679 23.116L40.6159 23.104V22.972H40.6759L40.6999 22.9H40.7359L40.7479 22.828V22.768H40.8079V22.732L40.8199 22.708L40.8679 22.696V22.636L40.9879 22.624V22.504L41.0599 22.492V22.42H41.1799V22.288H41.3719V22.228H41.4199L41.5159 22.216H41.5639V22.156H41.8039V22.132L41.8159 22.096L41.8279 22.084H42.3919L42.4279 22.096L42.4399 22.12V22.144L42.4999 22.156H43.0639V22.216H43.1719V22.348H43.2439V22.42H43.3039V22.48L43.3159 22.504H43.4359V22.564H43.4959V22.624H43.8679V22.6L43.8799 22.564H44.1199V22.624H44.2639L44.4559 22.636L44.4919 22.648V22.696H44.9359L44.9479 22.66V22.636H45.0559L45.0679 22.696L45.3679 22.708V22.732L45.3799 22.768H45.5119L45.5719 22.78V22.828H45.6799V22.864L45.6919 22.9H45.7519L45.8119 22.912V22.948L45.7999 22.972H45.8719V23.044H45.9319V23.104L45.9919 23.116L46.0039 23.14V23.176H46.1239V23.248H46.1839V23.32H46.2559V23.38H46.3039V23.452H46.3759V23.524H46.4359V23.656H46.4959V23.8H46.5559V23.86H46.6279V23.932H46.6879V23.992L46.8079 24.004V24.064H46.9279V24.136H46.9999V24.208H47.0599V24.28H47.1319V24.412H47.1799L47.1919 24.544V24.676L47.2519 24.688V24.964H47.3119V25.156L47.3839 25.168V25.36L47.4439 25.372V25.504L47.5039 25.516V25.708H47.5519L47.5639 25.756V25.864L47.5519 25.912L47.6239 25.924L47.6359 26.26V26.632L47.6239 26.668H47.5999L47.5639 26.68L47.5759 26.74V26.8H47.6239L47.6359 26.848V27.088L47.6239 27.148H47.5759V27.628H47.5159V27.76L47.5039 27.892L47.4439 27.904V28.108H47.3959L47.3719 28.228L47.3239 28.24L47.3119 28.3L47.2639 28.312V28.444H47.1919V28.648H47.1439V28.78H47.0719L47.0599 28.924H47.0119V29.056H46.9519L46.9399 29.2H46.8919V29.332H46.8319L46.8199 29.464L46.7719 29.476L46.7599 29.596L46.6999 29.608V29.668L46.6399 29.68V29.74H46.5799L46.5679 29.776V29.812H46.5199V29.848L46.5079 29.872L46.4479 29.884V29.944L46.3279 29.956V29.98L46.3159 30.016H46.2679V30.052L46.2559 30.088H46.1959V30.148L46.0759 30.16V30.184L46.0639 30.22H46.0039V30.292H45.8839L45.8719 30.328V30.352H45.8359V30.424L45.7039 30.436L45.6919 30.46V30.496H45.5839V30.628L45.4519 30.64L45.4399 30.664V30.7H45.3919L45.3799 30.736V30.76L45.3319 30.772V30.832H45.2599V30.904H45.1399V30.976H45.0079V31.048H44.8879V31.108H44.8279V31.18H44.7559V31.24L44.5039 31.252V31.3L44.4559 31.312ZM43.9999 29.74L44.1799 29.752L44.2879 29.74V29.716L44.2999 29.68L44.4679 29.668L44.4799 29.608L44.5879 29.596V29.548L44.6479 29.536V29.476L44.7679 29.464V29.392H44.8279V29.332H44.9479V29.272H45.0079V29.2H45.0559V29.164L45.0679 29.14L45.1759 29.116V29.068L45.2959 29.056V29.032L45.3079 28.996H45.3439L45.3559 28.924V28.864L45.4159 28.852V28.792L45.5359 28.78V28.744L45.5239 28.72H45.5839V28.66L45.6439 28.648L45.6559 28.612V28.588H45.7159V28.516H45.7639V28.384H45.8239V28.24H45.8839V28.108H45.9439V27.94L45.9559 27.904H46.0039V27.844L46.0159 27.736V27.688H46.0639V27.424H46.1359V27.148H46.0639V26.392H46.1359V26.332H46.0639L46.0519 25.912H45.9919V25.708H45.9199V25.444L45.8719 25.432L45.8599 25.372L45.8119 25.36V25.228H45.7519V25.192L45.7399 25.156H45.7039L45.6919 25.132V25.096L45.6559 25.084H45.6439L45.6319 24.964L45.5839 24.952L45.5719 24.928V24.892H45.5119V24.82H45.4639V24.76H45.4039V24.688H45.3439V24.628L45.2839 24.616V24.556L45.2239 24.544V24.484H45.1639V24.412H45.1039V24.34H44.9719L44.9239 24.328V24.28L44.8159 24.268V24.208H44.6959V24.136H43.9879V24.064H43.8079V24.028L43.7959 24.004H43.7599L43.6759 23.992L43.6399 23.968V23.944L43.6279 23.932L43.2799 23.92V23.86H43.1119V23.8H42.9319V23.728H42.7519V23.656H42.5239V23.584H42.3439V23.656H42.2839V23.728H42.1639V23.764L42.1519 23.8H42.0439V23.86H41.9839V23.992L41.9359 24.004L41.9239 24.028V24.064L41.8639 24.076V24.196L41.8039 24.208V24.28H41.7439V24.34H41.6959V24.472L41.6839 24.616H41.6359V24.76H41.5639V24.964H41.5159V25.156H41.4559V25.972L41.3959 25.984L41.3839 26.524H41.4559V26.728H41.5159V26.872H41.5759V26.944H41.6359V27.148H41.6959V27.352H41.7439V27.424H41.8039V27.556H41.8759V27.688H41.9239V27.76L41.9359 27.832H41.9839V27.964H42.0439V28.036H42.1039V28.168H42.1639V28.24H42.2239V28.384H42.2839V28.444H42.3439V28.516H42.4039V28.588H42.4639V28.648H42.5239V28.72H42.5839V28.792L42.6439 28.78V28.852L42.6919 28.864L42.7039 28.9V28.924H42.7639V28.996H42.8119V29.068H42.9319V29.128L42.9799 29.14L42.9919 29.164V29.2H43.0519V29.26L43.0879 29.272H43.1119V29.332H43.2199V29.392H43.3399V29.428L43.3519 29.464L43.4599 29.476L43.4719 29.536L43.5319 29.548V29.608H43.6999V29.668H43.7719L43.8919 29.68H43.9399V29.74H43.9999ZM50.9362 31.54H50.7802L50.7682 31.516V31.468H50.6962V31.408H50.6122L50.6002 31.336H50.5402V31.276H50.4562L50.4322 31.072H50.3602V31L50.3122 30.94H50.2522L50.2402 30.808H50.1682L50.1562 30.592H50.2282L50.2042 30.46L50.1922 30.328H50.1322L50.0962 30.136L50.0842 29.92H50.1562L50.1442 29.788H50.0722L50.0362 29.452H50.0962V29.38H50.0362L50.0602 29.14H49.9762L49.8922 28.336H49.8322L49.7722 27.796H49.7002L49.6282 26.992H49.5682L49.5202 26.452H49.4602L49.4242 26.26H49.3642L49.3522 26.116H49.2922L49.2682 26.044L49.2562 25.816L49.2082 25.384L49.1842 25.12H49.1242L49.0882 24.58H49.1482L49.1362 24.484V24.364L49.1242 24.304H49.1842V24.244L49.2442 24.232L49.2322 24.1H49.3282V24.04H49.3882L49.3642 23.764H49.3042L49.2682 23.356H49.3282L49.3042 23.164H49.3762L49.3642 23.032H49.4242L49.4122 22.9L49.4962 22.876V22.816L49.4842 22.756H49.6402V22.684H49.7002L49.6882 22.624H49.7842V22.6L49.7722 22.516V22.492H49.9282V22.42H49.9882L49.9762 22.36H50.1322L50.1442 22.276H50.2042V22.216H50.5762V22.144H50.8762L50.8642 22.084H51.2602V22.024H51.5242L51.8242 22.012H51.8722V21.952H52.3402L52.3522 22.012H52.3882L52.5082 22.024H52.5802V22.084H52.7962L52.8082 22.144H53.0482L53.0602 22.192V22.216H53.2762L53.2882 22.276L53.3602 22.3L53.3722 22.36H53.4442L53.4682 22.42H53.6242V22.492H53.6962L53.7082 22.564H53.7802L53.8042 22.684L54.0202 22.696V22.756H54.1042V22.792L54.1162 22.816L54.1882 22.84V22.9H54.2602L54.2962 22.96L54.4282 22.972L54.4402 22.996V23.032H54.5242L54.5362 23.092V23.152L54.6202 23.164L54.6322 23.224H54.6922V23.296H54.7642L54.7882 23.356V23.44H54.8482L54.8602 23.572H54.9322L54.9802 23.824L55.0162 23.836H55.0522L55.1002 24.436H55.1602L55.1962 24.844H55.1482V24.904H55.2082L55.2562 25.444H55.1962L55.2202 25.804L55.2562 26.212L55.2682 26.26H55.2082V26.584H55.1362L55.1482 26.656V26.716H55.0882L55.1002 26.8H55.0162L55.0282 26.992H54.9562L54.9682 27.052L54.8842 27.064V27.124H54.8122V27.256H54.7522L54.7762 27.532H54.7042V27.592H54.6082L54.6202 27.652L54.5482 27.664L54.5602 27.796H54.5002L54.4762 27.832V27.856H54.4162L54.4282 27.94H54.3562V28.072H54.2842V28.132H54.2002L54.2242 28.336H54.1642V28.396L54.0802 28.42V28.456L54.0082 28.48V28.54H53.8522L53.8642 28.564V28.612H53.7922V28.636L53.7802 28.672H53.6242L53.6362 28.804H53.5762L53.5882 28.84V28.864L53.4202 28.876V28.936H53.1922L53.2042 28.996H53.1202L53.0122 29.02H52.9882L52.9762 29.044V29.08H52.4242V29.02L52.2682 28.996L52.2562 28.936H51.9322V28.876H51.6562V28.936H51.5962L51.6202 29.224L51.6562 29.548L51.6682 29.512V29.572L51.6922 29.812L51.7042 29.992H51.7642L51.8242 30.592H51.7642V30.652H51.6922L51.7042 30.808H51.6322L51.6442 30.868H51.5722L51.5842 31H51.4882V31.096L51.5002 31.132H51.4402V31.192H51.2002L51.2242 31.276H51.0682L51.0802 31.408H51.0082V31.468H50.9242V31.516L50.9362 31.54ZM52.5202 27.472V27.532H52.9762V27.472L53.1202 27.46L53.1082 27.4V27.316H53.1682L53.1802 27.292V27.256H53.2402V27.196L53.3362 27.184V27.064L53.3962 27.052L53.3722 27.016V26.992H53.4562V26.932H53.5282L53.5162 26.86H53.6002V26.8L53.6602 26.776L53.6482 26.716H53.7322V26.656H53.7682V26.62L53.7562 26.38L53.7442 26.2L53.7922 26.176L53.8042 26.044L53.7922 25.876V25.852H53.8522L53.8162 25.444H53.7562L53.7442 25.396L53.7082 25.144L53.6842 24.88L53.6722 24.844L53.6122 24.832L53.5762 24.376L53.5282 24.364L53.5042 24.304H53.4322V24.244L53.3722 24.232L53.3602 24.1H53.2882V24.04H53.2162L53.2042 24.004L53.1802 23.98H53.1322L53.1082 23.836L52.9522 23.824V23.764H52.8082L52.7962 23.704H52.7362V23.632H52.6522V23.572L52.5082 23.56V23.5H52.0162V23.56H51.5722L51.1282 23.572V23.596L51.1402 23.62L51.1042 23.632H50.9962V23.704H50.8402L50.8522 23.764H50.6962V23.824H50.6242V23.872L50.6362 23.896H50.5402L50.5522 24.1H50.6122L50.6482 24.244H50.7082L50.7442 24.58L50.7682 24.916H50.8402L50.8642 25.144L50.8762 25.384H50.9362L50.9482 25.432L50.9722 25.732L50.9962 25.984H51.0562L51.1162 26.512L51.1762 26.524L51.2002 26.86H51.2602L51.2722 26.992H51.3322V27.052L51.5002 27.064V27.124H51.5842V27.184L51.6682 27.196V27.256H51.7402V27.316H51.8122L51.8242 27.4H51.9082L51.9202 27.46H51.9802L52.2802 27.472H52.5202ZM58.9736 31.312H58.1696V31.276L58.1576 31.252H57.9896V31.192H57.9296V31.084H57.8696V31.024H57.8216V30.904H57.7616V30.832L57.7496 30.712V30.676H57.7016V30.556H57.6536L57.6416 30.52V30.328H57.5816V30.148H57.5336L57.5216 30.028H57.4736V29.92H57.4136V29.692H57.3536V29.512L57.2936 29.524V29.164H57.2456L57.2336 29.116V28.996H57.1736V28.9L57.1856 28.756V28.708H57.2336V28.468H57.1856L57.1736 28.42V27.544H57.1256V27.148L57.0656 27.136V26.968H57.1136L57.1256 26.92V26.836L57.1136 26.788H57.0656V25.168H57.0056V24.82H56.9456V24.652H56.8856V23.956H56.8376L56.8256 23.908V23.788H56.7776V23.596L56.7656 23.548H56.7176V23.38H56.6576V23.152H56.5976V23.032H56.5496L56.5376 22.852H56.5976V22.684H56.6576V22.624H56.6816L56.7176 22.612V22.504H56.7896V22.456H57.0056V22.396H57.1496V22.336H57.2216V22.276H57.6656V22.336H57.9416V22.396H58.0016V22.444L58.0856 22.456L58.0976 22.48V22.504H58.0256V22.576H58.0976V22.852H58.1576V23.032H58.2296V23.32H58.3016V23.428H58.3856V23.536H58.4456L58.4576 23.644H58.5176V24.364L58.5296 24.424H58.5776V24.736L58.5176 24.748V24.964L58.5296 25.024H58.5776V26.056H58.6376V27.148H58.6976V28.024H58.7576V28.24H58.8056V28.564H58.8536V28.672L58.8656 28.804V28.852H58.9136V28.996L58.9496 29.008L58.9616 29.044V29.284H59.0216V29.344H59.0696V29.44H59.1296V29.5H59.1656V29.56H59.9096V29.5H60.5936V29.452H60.6296L60.9416 29.44H61.2296V29.5H61.7936V29.608H62.2376L62.2736 29.632V29.692L62.3936 29.716V29.8L62.5016 29.824V29.932H62.6816V30.016H62.7416V30.376H62.7896V30.676H62.7416V30.724L62.7296 30.784L62.6816 30.796L62.6696 30.844H62.5616V30.904L62.5016 30.916V30.964H62.4536L62.4416 31.024H62.3336V31.072L62.1536 31.084V31.132H61.3496V31.108L61.3376 31.084H61.1216V31.132H61.0016V31.084H60.9416V31.132H60.8216V31.084H60.7616V31.132H60.3056V31.192H59.8976V31.252H58.9736V31.312ZM66.079 31.372H65.731V31.3H65.515V31.228H65.023V31.156H64.663V31.084H64.531V31.012H64.459V30.94H64.375V30.88H64.315V30.796H64.243V30.664H64.171V30.592H64.111L64.099 30.556V30.52H64.039L64.027 30.448V30.376L63.955 30.376V30.304H63.883V30.172L63.823 30.16L63.811 30.028L63.823 29.824V29.752H63.883V29.596H63.823V29.524L63.811 29.356V29.176H63.751V28.828L63.679 28.816L63.667 28.612V28.408L63.619 28.396L63.607 28.336H63.535V27.628H63.463V26.848H63.391V26.14H63.331V25.576H63.391V25.228H63.331V24.52H63.247V24.16H63.187V24.112L63.175 23.968V23.884H63.115V23.68L63.043 23.668V23.392L63.115 23.38V23.32H63.175L63.187 23.248H63.331V23.176H63.391V23.104H63.463V23.032H63.607V22.96H63.751V22.9L63.823 22.888V22.744H63.883V22.696L63.955 22.684V22.612L64.039 22.612L64.027 22.588L64.039 22.552L64.075 22.54H64.099V22.468H64.315V22.396H65.371V22.324H65.731V22.252H66.007V22.192H66.355L66.367 22.156V22.12H66.715V22.048H66.919V21.976H67.555L67.567 22.048L67.627 22.06V22.12H67.771V22.18L67.903 22.192L67.915 22.324L67.987 22.336V22.396H68.047V22.468L68.119 22.48V22.684L68.095 22.672L68.071 22.684H68.047V22.828H67.987V23.032H67.915L67.903 23.176H67.771V23.248H67.627V23.32H67.411V23.38H67.135V23.452L66.715 23.464L66.703 23.536H66.367L66.355 23.572V23.596L65.587 23.608L65.575 23.632V23.668H65.371V23.74H65.155V23.812H65.023V23.884L64.951 23.896V24.604H65.011V24.64L65.023 24.772L65.011 24.892V24.94H64.951V25.372H65.011V25.42L65.023 25.732V26.008H65.083V26.14H65.155V26.284H65.371V26.356H65.575V26.284H65.791L65.803 26.356H65.863V26.284H66.367V26.344L66.427 26.356H66.715V26.284H66.919V26.224H67.135V26.14H67.483V26.2L67.627 26.224V26.284H67.771V26.356H67.903V26.428H67.987V26.572H68.047V26.848H67.987V26.92L67.975 26.992H67.903V27.064H67.831V27.136H67.771V27.196L67.711 27.208L67.699 27.256V27.352H67.483V27.412H67.339L67.279 27.424V27.484H67.135V27.556H66.859V27.628H66.715L66.703 27.652V27.688H66.403L66.259 27.7H66.211V27.772H65.863V27.832L65.443 27.844V27.904H65.371V27.976H65.299V28.408H65.371V28.972H65.443V29.104L65.503 29.116L65.515 29.176H65.575V29.26H65.659V29.392H65.719V29.464L65.731 29.524L65.791 29.536V29.68H65.995L66.007 29.74L67.135 29.752V29.68L67.987 29.668V29.608H68.263V29.68H68.407V29.74L68.479 29.752V30.232L68.407 30.244V30.376H68.335V30.448H68.275L68.263 30.592H68.203L68.191 30.664V30.736H68.119V30.796H68.047V30.88H67.831V30.94H67.699V31.012H67.279V31.084H67.063V31.156H66.919V31.228H66.715V31.3H66.499V31.228H66.427V31.3H66.079V31.372ZM76.2236 31.648H76.0796L76.0676 31.588H75.9956V31.516L75.9356 31.504L75.9236 31.48V31.444H75.7196V31.384H75.5876L75.5756 31.348V31.312H75.5036V31.264H75.4436L75.4316 31.204L75.4076 31.012L75.3956 30.784V30.7H75.4556L75.4316 30.448H75.5036L75.4676 30.124L75.4436 29.74L75.4316 29.692L75.4916 29.68V29.608L75.4796 29.548H75.5516V29.44H75.6236L75.6116 29.38H75.5396V29.308H75.6116L75.5876 29.032H75.6476L75.5996 28.504L75.5516 27.94L75.5396 27.88H75.5996L75.6116 27.736H75.6596V27.532H75.7196L75.6836 27.136H75.7556L75.7076 26.536L75.7676 26.524L75.7556 26.464L75.8276 26.452L75.7916 26.056H75.8516L75.8276 25.636H75.8996L75.8876 25.444H75.9476L75.9236 25.228H75.9836L75.9716 25.036L76.0556 25.024L76.0316 24.772L76.0796 24.748V24.64H76.1396L76.1276 24.58L76.1396 24.556L76.1996 24.544L76.1876 24.352H76.2716L76.2476 24.076H76.3076L76.2836 23.8H76.3436L76.3076 23.476L76.3796 23.464L76.3676 23.26H76.4276L76.4156 23.14L76.4996 23.128V23.092L76.4876 23.056H76.5476V22.984H76.6196L76.6076 22.852H76.6676L76.6436 22.648H76.7036V22.588H76.7756V22.516H76.9076L76.8956 22.384L77.0996 22.372V22.312H77.4356V22.288L77.4236 22.252H77.5076L77.5676 22.264V22.312H77.7116V22.372H77.7716L77.7836 22.456V22.516H77.8556L77.8796 22.588H78.0116V22.648H78.0716L78.0836 22.708H78.1436V22.792L78.1556 22.852H78.2276V22.9L78.2396 22.924H78.3716L78.3836 23.056H78.4436L78.4556 23.092V23.128L78.5276 23.14L78.5396 23.26L78.5996 23.272L78.6236 23.392L78.6716 23.404L78.6956 23.536L78.7676 23.548V23.608L78.7796 23.68H78.8396V23.716L78.8516 23.74L78.9236 23.752L78.9476 23.944H79.0076L79.0196 24.076H79.0796V24.148L79.0916 24.208H79.1516L79.1636 24.268L79.1756 24.376V24.412H79.2356L79.2476 24.556H79.3196V24.58L79.3436 24.628L79.3916 24.64L79.4036 24.676L79.4156 24.808L79.4276 24.892H79.4996L79.5116 25.096L79.5716 25.108L79.5836 25.168V25.264L79.5956 25.3H79.6676L79.6916 25.504H79.7396L79.7636 25.588L79.7756 25.696V25.792L79.7876 25.84H79.8476L79.8716 26.116H79.9436V26.188L80.0036 26.2L80.0396 26.536H80.1116V26.572L80.1236 26.704L80.1356 26.788H80.1956L80.2076 26.848L80.2196 26.944V27.004H80.2916L80.3036 27.196H80.3636L80.3876 27.472H80.4476L80.4596 27.592L80.4716 27.736H80.5436L80.5556 27.772V27.82H80.6156L80.6276 27.868L80.6636 28.156H80.7236L80.7476 28.288H80.7956L80.8196 28.348V28.42L80.8796 28.432L80.9036 28.492V28.564H80.9636L81.0356 29.38H81.0836L81.1196 29.632L81.1796 29.656L81.1916 29.716H81.1316L81.1676 30.16L81.1916 30.604H81.1436L81.1676 30.868H81.1076L81.1196 31H80.9756L80.9876 31.06H80.8556V31.108L80.8436 31.144H80.7116L80.7236 31.204H80.4476L80.4356 31.144H80.3036V31.084H80.2556L80.1476 31.06H80.0996L80.0876 31H79.9556V30.94H79.8956V30.916L79.8836 30.808L79.8596 30.724H79.7876L79.7516 30.328L79.8356 30.316V30.256L79.7756 30.244L79.7396 30.112H79.6796L79.6556 29.86L79.6316 29.56L79.6076 29.512H79.5596V29.44L79.5356 29.38H79.4756V29.308H79.1996V29.272L79.1876 29.236H77.8436L77.7596 29.248L77.7716 29.272V29.296L77.0396 29.308V29.38H76.8956L76.9076 29.44V29.512H76.8356V29.572L76.8476 29.62H76.7996L76.8236 29.884H76.7396L76.7756 30.364H76.7156L76.7276 30.412V30.616L76.7396 30.772H76.6796L76.6916 30.832L76.6796 30.94L76.6916 30.976H76.6436L76.6556 31.18H76.5716L76.5836 31.312H76.5356V31.384H76.4756V31.444H76.3916L76.4036 31.516H76.2716V31.588H76.2116V31.624L76.2236 31.648ZM77.3636 27.676V27.736H78.8516V27.676H78.9236L78.8756 27.196H78.8036L78.7916 27.004H78.7316L78.7076 26.728H78.6356L78.6236 26.632L78.6116 26.512L78.5996 26.452H78.5396L78.5156 26.188L78.4436 26.164L78.4316 26.056L78.3716 26.044V26.032L78.3596 25.96V25.912H78.2996V25.84L78.2276 25.828L78.2156 25.78L78.2036 25.72H78.1436L78.1316 25.576H78.0596L78.0356 25.372L77.9756 25.36V25.3H77.9036L77.8916 25.228V25.168L77.8196 25.156L77.8076 25.108H77.5436L77.5556 25.168V25.228H77.4836L77.4956 25.3H77.4236L77.4356 25.504H77.3756L77.3876 25.636H77.3036L77.3276 25.84H77.2676V25.912H77.2076V25.936L77.2196 26.068L77.2316 26.164L77.1596 26.188L77.1716 26.32H77.1116V26.452H77.0396L77.0756 26.86H77.0156L77.0396 27.196H76.9796L76.9916 27.256L77.0516 27.268L77.0636 27.472H77.1236L77.1476 27.616H77.2196V27.676H77.3636ZM84.219 31.3H84.075V31.24L83.919 31.228V31.18H83.847L83.835 31.12L83.703 31.108V30.988H83.619V30.82L83.559 30.808V30.688H83.487V30.22H83.427V29.968H83.343V29.908L83.355 29.848H83.427V29.488L83.343 29.476V29.128H83.295V28.924L83.283 28.888H83.223V28.84L83.211 28.624V28.456H83.151V27.976H83.091V27.496H83.151V26.944H83.091V26.908L83.079 26.584V26.296H83.019V26.116L83.079 26.104V25.876L83.031 25.864L83.019 25.564H82.947V24.904H82.887V24.424H82.815V24.304H82.887V23.824H82.947V23.632H83.019V23.524H83.079V23.464H83.151V23.404H83.211V23.344L83.307 23.332V23.284H83.355V23.248L83.367 23.212H83.439V23.152H83.571V23.092H83.703V22.972H83.763V22.924L83.835 22.912L83.847 22.792H83.919V22.732H84.051V22.696L84.063 22.672H84.183V22.624L84.243 22.612V22.552H84.315V22.504L84.459 22.492V22.432H84.651V22.372H84.783V22.312H84.915V22.252H85.059V22.192H85.803L85.815 22.228V22.252H86.067L86.079 22.288V22.312H86.211L86.223 22.372H86.283L86.295 22.432L86.427 22.444V22.492L86.559 22.504V22.552H86.631V22.612L86.691 22.624V22.672H86.835V22.732L86.967 22.744V22.792H87.039V22.852H87.171V22.912H87.231L87.243 22.972L87.375 22.984V23.032H87.447V23.068L87.459 23.092H87.579L87.591 23.128V23.152L87.639 23.164V23.212H87.711V23.272H87.771L87.795 23.332L87.843 23.344L87.855 23.392L87.927 23.404L87.939 23.452L88.059 23.464V23.584H88.119V23.632L88.203 23.644V23.692L88.251 23.704L88.263 23.752L88.323 23.764V23.788L88.335 23.812L88.359 23.824H88.383V23.872H88.467L88.479 23.944V24.004H88.539V24.064H88.599V24.112L88.659 24.124L88.671 24.184H88.731V24.208L88.743 24.292V24.364H88.803V24.904H88.779L88.743 24.916V24.964L88.731 25.012L88.671 25.024L88.659 25.264H88.611L88.599 25.324H88.539L88.527 25.384H88.479V25.444L88.467 25.504L88.395 25.516V25.564H88.347V25.744H88.275L88.263 25.804H88.215L88.203 25.864L88.131 25.876V25.924H88.083L88.071 26.044L87.999 26.056V26.104H87.951L87.939 26.236H87.867V26.296H87.735V26.356H87.675V26.476H87.603V26.536H87.543V26.584H87.411V26.644H87.339V26.704H87.291V26.764H87.159L87.147 26.788V26.836H87.075V26.896H87.003V26.956H86.943V27.016H86.871V27.196H86.943V27.256H87.003V27.316H87.075V27.376H87.147L87.159 27.508H87.207V27.556L87.279 27.568V27.616H87.339V27.652L87.351 27.676H87.387L87.411 27.688V27.736H87.543V27.796H87.675V27.856H87.735V27.916H87.807V28.036H87.867V28.096H87.939V28.156H88.071V28.216H88.131V28.276H88.203V28.312L88.215 28.348H88.263V28.396L88.347 28.408V28.456H88.395V28.528H88.479V28.588H88.539V28.708H88.611V28.768H88.635V28.816L88.671 28.828V28.888H88.743V28.948H88.803V29.068H88.935V29.128H89.007V29.188H89.067V29.248H89.187L89.211 29.428H89.271V29.488H89.343V29.668L89.403 29.68V29.788H89.475V29.908H89.535V29.968H89.607V30.088H89.667V30.64H89.607V30.688H89.535V30.748H89.475V30.808H89.343V30.868H89.007V30.808H88.935V30.748H88.875V30.7L88.671 30.688V30.64H88.479V30.58H88.407V30.52H88.347V30.4H88.215V30.328H88.131V30.268H88.071V30.22L88.011 30.208L87.999 30.184V30.148H87.951V30.088L87.939 30.028H87.867V29.968H87.807V29.908H87.747V29.848H87.699L87.687 29.788V29.728H87.615V29.668H87.483V29.608H87.375L87.363 29.488L87.231 29.476V29.428H87.183L87.171 29.308H87.099V29.248H87.063L87.051 29.212V29.188H86.919V29.128H86.787V29.068H86.727V29.008H86.667V28.948H86.595V28.888H86.535V28.816H86.463V28.768H86.415V28.696H86.343V28.588H86.283V28.552L86.271 28.516H86.211V28.468L86.079 28.456V28.396H85.959V28.336L85.947 28.276H85.827V28.216H85.707V28.156H85.647V28.096H85.575V28.072L85.563 28.048L85.455 28.036V27.976H85.323L85.311 27.952V27.916H85.251V27.868L85.179 27.856V27.808L85.059 27.796V27.736H84.675V27.796H84.627L84.615 27.916H84.663L84.675 27.964V28.528H84.747V28.828H84.807L84.831 29.008H84.879V29.248L84.891 29.488H84.951V29.668H85.011V29.728H85.083V29.848H85.143V29.908H85.179L85.215 29.92V30.028H85.143V30.148H85.083V30.268H85.023L85.011 30.508L84.951 30.52V30.688H84.795V30.748H84.735V30.808H84.651V30.868H84.507V30.928L84.363 30.94V31.108H84.279V31.24H84.219V31.3ZM84.675 26.236V26.296H84.807V26.236H85.635V26.176H85.695V26.116L85.815 26.104V26.056L85.947 26.044V25.996L86.055 25.984L86.067 25.924H86.139V25.876H86.247L86.259 25.84V25.804H86.511V25.744H86.631V25.636L86.763 25.624V25.576L86.811 25.564V25.516L86.871 25.504V25.384H86.943V25.36L86.955 25.324H87.075V25.216L87.147 25.204L87.159 25.024H87.219L87.207 24.844V24.664H87.159V24.604H87.075V24.484H87.027V24.424H86.943V24.364H86.823V24.304L86.691 24.292V24.244L86.643 24.232V24.184H86.571V24.124L86.439 24.112V24.064L86.391 24.052V24.004L86.319 23.992V23.944L86.187 23.932L86.175 23.872H86.067V23.848L86.055 23.812H85.935V23.752H85.887V23.692H85.683V23.632H85.431V23.584H85.179L85.167 23.608V23.632H84.987V23.692H84.855V23.752H84.795V23.812H84.735V23.872H84.663L84.651 23.992L84.615 24.004L84.603 24.064V24.112H84.543V24.316L84.531 24.364H84.495L84.483 24.412V24.604H84.411V24.784H84.351V24.904H84.411V25.684L84.471 25.696L84.483 25.732V26.116H84.543V26.176L84.567 26.236H84.675ZM93.2547 31.372H92.9067V31.3H92.6907V31.228H92.1987V31.156H91.8387V31.084H91.7067V31.012H91.6347V30.94H91.5507V30.88H91.4907V30.796H91.4187V30.664H91.3467V30.592H91.2867L91.2747 30.556V30.52H91.2147L91.2027 30.448V30.376H91.1307V30.304H91.0587V30.172L90.9987 30.16L90.9867 30.028L90.9987 29.824V29.752H91.0587V29.596H90.9987V29.524L90.9867 29.356V29.176H90.9267V28.828L90.8547 28.816L90.8427 28.612V28.408L90.7947 28.396L90.7827 28.336H90.7107V27.628H90.6387V26.848H90.5667V26.14H90.5067V25.576H90.5667V25.228H90.5067V24.52H90.4227V24.16H90.3627V24.112L90.3507 23.968V23.884H90.2907V23.68L90.2187 23.668V23.392L90.2907 23.38V23.32H90.3507L90.3627 23.248H90.5067V23.176H90.5667V23.104H90.6387V23.032H90.7827V22.96H90.9267V22.9L90.9987 22.888V22.744H91.0587V22.696L91.1307 22.684V22.612H91.2147L91.2027 22.588L91.2147 22.552L91.2507 22.54H91.2747V22.468H91.4907V22.396H92.5467V22.324H92.9067V22.252H93.1827V22.192H93.5307L93.5427 22.156V22.12H93.8907V22.048H94.0947V21.976H94.7307L94.7427 22.048L94.8027 22.06V22.12H94.9467V22.18L95.0787 22.192L95.0907 22.324L95.1627 22.336V22.396H95.2227V22.468L95.2947 22.48V22.684L95.2707 22.672L95.2467 22.684H95.2227V22.828H95.1627V23.032H95.0907L95.0787 23.176H94.9467V23.248H94.8027V23.32H94.5867V23.38H94.3107V23.452L93.8907 23.464L93.8787 23.536H93.5427L93.5307 23.572V23.596L92.7627 23.608L92.7507 23.632V23.668H92.5467V23.74H92.3307V23.812H92.1987V23.884L92.1267 23.896V24.604H92.1867V24.64L92.1987 24.772L92.1867 24.892V24.94H92.1267V25.372H92.1867V25.42L92.1987 25.732V26.008H92.2587V26.14H92.3307V26.284H92.5467V26.356H92.7507V26.284H92.9667L92.9787 26.356H93.0387V26.284H93.5427V26.344L93.6027 26.356H93.8907V26.284H94.0947V26.224H94.3107V26.14H94.6587V26.2L94.8027 26.224V26.284H94.9467V26.356H95.0787V26.428H95.1627V26.572H95.2227V26.848H95.1627V26.92L95.1507 26.992H95.0787V27.064H95.0067V27.136H94.9467V27.196L94.8867 27.208L94.8747 27.256V27.352H94.6587V27.412H94.5147L94.4547 27.424V27.484H94.3107V27.556H94.0347V27.628H93.8907L93.8787 27.652V27.688H93.5787L93.4347 27.7H93.3867V27.772H93.0387V27.832L92.6187 27.844V27.904H92.5467V27.976H92.4747V28.408H92.5467V28.972H92.6187V29.104L92.6787 29.116L92.6907 29.176H92.7507V29.26H92.8347V29.392H92.8947V29.464L92.9067 29.524L92.9667 29.536V29.68H93.1707L93.1827 29.74L94.3107 29.752V29.68L95.1627 29.668V29.608H95.4387V29.68H95.5827V29.74L95.6547 29.752V30.232L95.5827 30.244V30.376H95.5107V30.448H95.4507L95.4387 30.592H95.3787L95.3667 30.664V30.736H95.2947V30.796H95.2227V30.88H95.0067V30.94H94.8747V31.012H94.4547V31.084H94.2387V31.156H94.0947V31.228H93.8907V31.3H93.6747V31.228H93.6027V31.3H93.2547V31.372ZM103.399 31.648H103.255L103.243 31.588H103.171V31.516L103.111 31.504L103.099 31.48V31.444H102.895V31.384H102.763L102.751 31.348V31.312H102.679V31.264H102.619L102.607 31.204L102.583 31.012L102.571 30.784V30.7H102.631L102.607 30.448H102.679L102.643 30.124L102.619 29.74L102.607 29.692L102.667 29.68V29.608L102.655 29.548H102.727V29.44H102.799L102.787 29.38H102.715V29.308H102.787L102.763 29.032H102.823L102.775 28.504L102.727 27.94L102.715 27.88H102.775L102.787 27.736H102.835V27.532H102.895L102.859 27.136H102.931L102.883 26.536L102.943 26.524L102.931 26.464L103.003 26.452L102.967 26.056H103.027L103.003 25.636H103.075L103.063 25.444H103.123L103.099 25.228H103.159L103.147 25.036L103.231 25.024L103.207 24.772L103.255 24.748V24.64H103.315L103.303 24.58L103.315 24.556L103.375 24.544L103.363 24.352H103.447L103.423 24.076H103.483L103.459 23.8H103.519L103.483 23.476L103.555 23.464L103.543 23.26H103.603L103.591 23.14L103.675 23.128V23.092L103.663 23.056H103.723V22.984H103.795L103.783 22.852H103.843L103.819 22.648H103.879V22.588H103.951V22.516H104.083L104.071 22.384L104.275 22.372V22.312H104.611V22.288L104.599 22.252H104.683L104.743 22.264V22.312H104.887V22.372H104.947L104.959 22.456V22.516H105.031L105.055 22.588H105.187V22.648H105.247L105.259 22.708H105.319V22.792L105.331 22.852H105.403V22.9L105.415 22.924H105.547L105.559 23.056H105.619L105.631 23.092V23.128L105.703 23.14L105.715 23.26L105.775 23.272L105.799 23.392L105.847 23.404L105.871 23.536L105.943 23.548V23.608L105.955 23.68H106.015V23.716L106.027 23.74L106.099 23.752L106.123 23.944H106.183L106.195 24.076H106.255V24.148L106.267 24.208H106.327L106.339 24.268L106.351 24.376V24.412H106.411L106.423 24.556H106.495V24.58L106.519 24.628L106.567 24.64L106.579 24.676L106.591 24.808L106.603 24.892H106.675L106.687 25.096L106.747 25.108L106.759 25.168V25.264L106.771 25.3H106.843L106.867 25.504H106.915L106.939 25.588L106.951 25.696V25.792L106.963 25.84H107.023L107.047 26.116H107.119V26.188L107.179 26.2L107.215 26.536H107.287V26.572L107.299 26.704L107.311 26.788H107.371L107.383 26.848L107.395 26.944V27.004H107.467L107.479 27.196H107.539L107.563 27.472H107.623L107.635 27.592L107.647 27.736H107.719L107.731 27.772V27.82H107.791L107.803 27.868L107.839 28.156H107.899L107.923 28.288H107.971L107.995 28.348V28.42L108.055 28.432L108.079 28.492V28.564H108.139L108.211 29.38H108.259L108.295 29.632L108.355 29.656L108.367 29.716H108.307L108.343 30.16L108.367 30.604H108.319L108.343 30.868H108.283L108.295 31H108.151L108.163 31.06H108.031V31.108L108.019 31.144H107.887L107.899 31.204H107.623L107.611 31.144H107.479V31.084H107.431L107.323 31.06H107.275L107.263 31H107.131V30.94H107.071V30.916L107.059 30.808L107.035 30.724H106.963L106.927 30.328L107.011 30.316V30.256L106.951 30.244L106.915 30.112H106.855L106.831 29.86L106.807 29.56L106.783 29.512H106.735V29.44L106.711 29.38H106.651V29.308H106.375V29.272L106.363 29.236H105.019L104.935 29.248L104.947 29.272V29.296L104.215 29.308V29.38H104.071L104.083 29.44V29.512H104.011V29.572L104.023 29.62H103.975L103.999 29.884H103.915L103.951 30.364H103.891L103.903 30.412V30.616L103.915 30.772H103.855L103.867 30.832L103.855 30.94L103.867 30.976H103.819L103.831 31.18H103.747L103.759 31.312H103.711V31.384H103.651V31.444H103.567L103.579 31.516H103.447V31.588H103.387V31.624L103.399 31.648ZM104.539 27.676V27.736H106.027V27.676H106.099L106.051 27.196H105.979L105.967 27.004H105.907L105.883 26.728H105.811L105.799 26.632L105.787 26.512L105.775 26.452H105.715L105.691 26.188L105.619 26.164L105.607 26.056L105.547 26.044V26.032L105.535 25.96V25.912H105.475V25.84L105.403 25.828L105.391 25.78L105.379 25.72H105.319L105.307 25.576H105.235L105.211 25.372L105.151 25.36V25.3H105.079L105.067 25.228V25.168L104.995 25.156L104.983 25.108H104.719L104.731 25.168V25.228H104.659L104.671 25.3H104.599L104.611 25.504H104.551L104.563 25.636H104.479L104.503 25.84H104.443V25.912H104.383V25.936L104.395 26.068L104.407 26.164L104.335 26.188L104.347 26.32H104.287V26.452H104.215L104.251 26.86H104.191L104.215 27.196H104.155L104.167 27.256L104.227 27.268L104.239 27.472H104.299L104.323 27.616H104.395V27.676H104.539ZM111.563 31.48H111.371L111.323 31.444L111.263 31.408L111.191 31.396V31.372L111.167 31.348H111.131V31.156H111.071V30.844H111.011V30.736L110.975 30.724L110.951 30.688L110.915 30.652H110.879V30.472H110.951V30.028L110.879 30.016V29.476L110.951 29.452V29.332H110.879V29.14H110.819V28.204H110.795L110.759 28.18L110.795 28.132L110.819 28.108L110.795 28.084H110.759V27.712L110.747 27.304L110.723 27.256L110.687 27.208V26.884H110.711L110.747 26.872V26.812L110.723 26.752L110.699 26.704V26.392L110.639 26.368V26.188H110.567V26.068H110.639V25.312L110.567 25.3V25.12H110.543L110.507 25.084L110.543 25.06L110.567 25.048V24.928H110.507V24.748L110.447 24.736V24.616H110.387L110.375 24.556L110.339 24.484L110.315 24.46L110.303 24.424H110.195V24.364H110.051V24.328L110.039 24.304L110.003 24.244L109.955 24.172L109.931 24.16V23.68H109.991V23.548H110.051V23.368H110.123V23.176L110.183 23.164L110.195 23.032L110.255 23.044V22.912H110.315V22.852L110.339 22.78L110.375 22.732L110.387 22.648V22.6H110.411L110.543 22.468H110.567V22.348H110.687L110.699 22.288H110.879V22.228H111.323V22.288H111.695V22.312L111.731 22.348L111.767 22.312V22.288H112.835V22.348H113.147V22.408L113.207 22.42L113.267 22.456L113.303 22.468L113.339 22.504L113.363 22.54L113.399 22.564V22.6H113.519V22.624L113.555 22.66L113.579 22.696L113.615 22.72L113.711 22.816L113.735 22.852L113.771 22.876V22.912H113.891V22.936L113.963 23.008V23.044L114.095 23.056V23.08L114.119 23.104L114.143 23.14L114.179 23.176H114.203L114.215 23.356H114.251L114.323 23.428H114.347V23.548H114.383L114.407 23.584L114.443 23.608L114.479 23.644L114.503 23.68L114.539 23.704L114.563 23.74L114.587 23.764L114.635 23.8L114.659 23.836L114.695 23.86L114.719 23.896L114.755 23.92H114.791V24.052H114.851V24.304H114.875L114.911 24.328L114.947 24.364L114.971 24.4L115.007 24.424H115.031V24.556H115.067L115.103 24.58L115.127 24.616L115.163 24.64L115.199 24.676H115.223V24.796H115.283V24.928H115.355V25.108H115.415V25.24H115.475V25.36L115.511 25.372L115.535 25.408L115.571 25.432L115.595 25.492L115.607 25.576L115.643 25.624L115.667 25.696L115.679 25.804V26.188H115.727V27.004H115.679V27.076L115.667 27.208L115.607 27.328L115.595 27.412V27.46L115.571 27.508L115.535 27.52V27.7H115.475V27.88H115.379L115.355 27.952L115.343 28.012H115.319L115.283 28.048L115.259 28.084L115.223 28.108L115.199 28.132L115.163 28.18V28.204H115.031V28.324H114.971V28.456H114.911V28.576H114.875L114.851 28.612L114.815 28.636L114.791 28.672L114.755 28.708H114.719V28.888H114.695L114.659 28.924L114.635 28.96H114.599V28.996L114.587 29.092L114.563 29.14L114.539 29.2V29.248L114.479 29.272V29.392H114.407V29.524L114.347 29.536V29.704H114.287L114.275 29.848H114.239L114.179 29.908L114.143 29.932L114.119 29.968L114.095 29.992L114.059 30.016L114.023 30.064L113.927 30.16H113.891V30.28H113.771V30.316L113.735 30.34L113.711 30.376V30.412H113.579V30.532H113.555L113.459 30.628V30.652H113.267V30.724H113.147V30.748L113.051 30.844L113.027 30.88V30.904H112.715V30.964H112.523V31L112.463 31.06V31.096H112.271L112.259 31.12L112.211 31.192L112.175 31.216L112.139 31.252L112.103 31.276L112.091 31.312L112.055 31.348L112.007 31.372L111.959 31.408L111.875 31.42L111.779 31.468L111.563 31.48ZM118.955 31.132H118.583V31.072H118.391V31.048L118.367 31.012H118.331V30.892H118.271V30.76H118.211V30.448H118.139V30.328H118.115L118.079 30.292L118.055 30.256L117.947 30.148V30.124H117.767V30.016L117.695 30.004V29.68H117.647V29.452L117.587 29.428V29.26L117.575 29.044L117.539 28.996L117.515 28.936L117.503 28.6V28.048H117.479L117.455 28.012L117.443 27.664V27.352H117.383V27.112H117.359L117.323 27.064L117.311 26.716V26.416H117.275V26.308L117.263 26.152L117.227 26.104L117.203 26.032L117.191 25.888V25.804L117.167 25.78L117.143 25.744L117.131 25.648L117.107 25.588L117.071 25.552V25.348H116.999V25.036L116.939 25.012V24.652H116.879V24.46L116.819 24.448V23.524L116.879 23.512V23.332H116.915L116.939 23.296L116.975 23.26H116.999L117.011 23.2L117.047 23.14L117.071 23.104L117.191 22.984L117.203 22.948H117.311L117.323 22.924L117.359 22.888L117.395 22.864V22.828H117.647V22.768H117.767V22.732L117.803 22.708L117.827 22.672L117.863 22.636L117.899 22.612V22.576H118.007L118.019 22.516H118.211V22.456H118.451V22.396H119.147V22.42L119.171 22.456L119.207 22.48V22.516H119.447L119.471 22.576H119.639V22.636H119.891L119.903 22.708H120.071L120.083 22.732L120.143 22.792V22.828H120.287V22.852L120.311 22.9H120.347V23.02H120.371L120.407 23.044L120.443 23.08L120.467 23.092V23.2L120.503 23.212L120.599 23.308V23.332H120.719V23.392H120.827L120.839 23.452L120.875 23.524L120.899 23.548L120.935 23.572L120.971 23.62L121.031 23.68L121.067 23.704L121.091 23.74L121.115 23.764L121.163 23.8L121.199 23.848H121.223V23.956L121.283 23.968V24.076L121.307 24.088L121.355 24.124L121.379 24.16H121.403V24.34H121.439L121.475 24.376V24.436L121.511 24.46L121.535 24.472V24.712H121.595V24.844H121.655V24.964H121.715V25.096H121.847V25.216H121.907V25.468L121.847 25.48V25.588L121.907 25.6V25.72H121.967V25.84L122.027 25.864V26.608H121.967V26.86H121.907V27.04H121.883L121.835 27.076L121.811 27.112H121.787V27.364H121.751L121.691 27.424L121.655 27.436V27.664L121.595 27.688V27.976L121.535 28V28.108L121.475 28.12V28.3H121.451L121.403 28.336L121.367 28.372L121.343 28.432V28.492H121.283V28.672L121.223 28.684V28.804H121.187L121.163 28.84L121.127 28.876H121.091V28.984L121.031 28.996V29.116H121.007L120.935 29.188H120.911V29.308H120.875L120.851 29.344L120.815 29.368H120.791L120.779 29.44L120.743 29.5H120.719V29.62H120.695L120.563 29.752L120.527 29.776L120.503 29.812L120.467 29.836L120.443 29.872L120.371 29.944L120.347 30.004V30.052L120.311 30.064L120.287 30.1V30.124H120.155L120.143 30.148L120.119 30.184L120.083 30.244L120.059 30.316L120.023 30.388L120.011 30.448H119.891V30.484L119.855 30.508L119.831 30.544L119.735 30.64H119.711V30.82H119.675L119.639 30.856V30.892H119.519V30.916L119.387 31.048V31.072H118.955V31.132ZM112.511 29.332L112.523 29.392H112.835V29.356L112.871 29.332L112.895 29.296L112.931 29.272L113.027 29.176V29.14H113.147V29.02H113.207V28.888H113.243L113.279 28.864L113.315 28.828L113.339 28.792L113.423 28.708H113.459V28.576H113.519L113.531 28.516L113.555 28.456L113.591 28.408L113.603 28.312L113.627 28.264H113.651V28.144L113.723 28.132L113.711 28.072V28.012H113.735L113.771 27.988L113.831 27.928V27.892H113.951L113.963 27.832L113.999 27.772L114.023 27.724L114.035 27.628L114.071 27.58L114.095 27.532L114.131 27.496L114.167 27.472L114.179 27.436L114.215 27.34L114.227 27.256H114.251L114.287 27.184V27.124H114.347V26.872H114.407V26.692H114.479V26.56H114.407V26.188H114.347V26.008H114.287V25.816H114.263L114.215 25.768V25.672L114.191 25.624H114.167V25.564L114.155 25.48L114.119 25.444L114.071 25.372L114.035 25.3L114.023 25.24H113.987L113.891 25.144L113.867 25.108L113.831 25.084L113.807 25.048L113.771 25.024L113.723 24.952L113.675 24.928L113.651 24.892L113.615 24.868L113.579 24.832L113.555 24.796L113.519 24.772L113.495 24.736H113.459V24.616H113.339V24.58L113.303 24.556L113.267 24.52L113.243 24.484H113.207V24.364H113.183L113.147 24.328L113.111 24.304H113.087V24.172H113.051L113.027 24.148V24.112H112.895V24.052H112.787L112.775 24.016L112.739 23.968L112.715 23.944L112.643 23.896V23.86H112.523V23.8H112.403V23.764L112.367 23.74L112.331 23.704V23.668H111.899L111.887 23.704L111.863 23.74L111.827 23.764L111.791 23.8H111.767V23.968L111.731 24.052L111.707 24.076L111.731 24.112H111.755L111.767 24.244V24.388L111.791 24.424L111.839 24.46L111.803 24.484L111.779 24.52L111.803 24.556H111.839V24.664L111.803 24.676L111.767 24.7L111.791 24.736L111.839 24.772L111.803 24.796L111.767 24.832L111.755 24.856L111.827 24.868L111.839 25.108H111.887V25.744L111.947 25.756V26.236L112.007 26.26V26.944H112.043L112.067 26.968L112.043 27.004L112.007 27.04L112.043 27.064L112.079 27.1L112.055 27.124L112.019 27.136L112.007 27.22V27.316L112.031 27.328L112.079 27.364L112.091 27.496V27.58H112.103L112.139 27.616L112.175 27.64H112.211V27.82H112.175L112.139 27.844L112.127 27.976V28.084H112.091V28.324H112.103L112.127 28.372L112.139 28.468L112.175 28.516L112.199 28.564L112.211 28.816V29.02H112.259V29.128L112.331 29.152V29.272H112.367L112.403 29.296V29.332H112.511ZM119.147 29.152V29.188H119.387V29.116H119.519V29.092L119.555 29.068L119.579 29.032L119.615 28.996H119.639V28.876L119.675 28.864L119.711 28.84L119.723 28.78L119.747 28.744L119.771 28.72L119.795 28.684H119.831V28.576L119.891 28.552V28.384L119.927 28.372L119.999 28.3L120.035 28.276V28.12H120.059L120.095 28.096L120.131 28.06L120.155 28.012L120.179 27.976L120.215 27.952V27.796H120.287V27.688L120.347 27.664V27.544H120.407V27.364L120.467 27.352V27.184L120.527 27.172V26.98L120.599 26.968V26.8L120.623 26.788L120.659 26.764V26.668H120.719V26.116L120.695 26.104L120.659 26.056V25.996L120.623 25.972L120.599 25.96V25.732L120.527 25.708V25.6L120.467 25.588V25.48L120.407 25.468V25.348H120.347V25.156H120.287V25.036H120.251L120.215 25L120.191 24.964H120.155V24.856L120.083 24.832V24.712H120.059L119.999 24.652L119.963 24.628V24.592H119.843L119.831 24.532H119.771L119.711 24.508V24.472L119.639 24.424L119.591 24.376L119.543 24.34L119.519 24.328V24.22H119.495L119.459 24.184L119.423 24.136L119.387 24.112V24.088L119.219 24.1L119.207 24.064L119.171 24.028L119.147 23.992L119.075 23.956L119.015 23.944V23.884L118.967 23.896H118.871L118.799 23.848L118.763 23.872V23.896H118.535L118.499 23.968L118.415 23.956L118.391 23.992L118.295 24.088H118.271V24.508L118.319 24.544L118.331 24.784V25.036H118.391V25.216L118.451 25.228V25.78L118.523 25.792V25.852L118.535 25.924L118.571 25.96L118.583 26.176V26.356H118.643V26.608H118.703V26.728L118.763 26.74V26.92H118.739L118.703 26.956L118.739 26.98L118.763 27.016L118.703 27.076L118.739 27.112H118.763V28.048L118.799 28.06L118.859 28.12L118.895 28.144V28.372H118.955V28.564H119.015V28.804H119.075V29.116H119.111L119.147 29.152ZM124.822 31.204H124.582V31.144H124.522V31.084H124.45V31.012H124.39V30.952H124.33V30.832H124.27V30.46H124.21V29.896H124.27V29.272H124.21V29.236L124.198 29.14V29.092H124.138V28.036H124.078V27.532H124.018V27.22H123.958V26.836L123.946 26.788H123.898V26.476H123.958V26.296H123.898V26.104H123.838L123.826 24.868H123.766V24.556H123.706V24.364H123.646V23.8H123.586V23.668L123.574 23.62H123.526V23.56H123.466L123.454 23.44H123.394V23.056H123.454V22.624H123.526V22.564H123.586V22.504H123.646V22.444H123.766V22.384H123.898V22.312H124.018V22.252H124.078V22.192H124.33V22.252H124.39V22.312H124.51V22.348L124.522 22.372L124.642 22.384V22.504H124.702V22.564H124.762V22.624H124.822V22.684L124.834 22.756H124.882V22.792L124.894 23.008V23.188H124.954V23.308H125.014V23.5H125.074V23.932H125.014V24.052H125.074V24.736H125.134V25.108L125.194 25.12V25.576L125.206 26.044H125.266V26.356H125.326V26.86H125.386V27.532H125.446V28.036H125.506V28.528H125.566V28.576L125.578 28.672V28.72H125.638V28.96H125.698V29.092H125.758V29.776H125.818V29.956H125.758V30.46H125.698V30.58H125.638V30.712H125.566L125.578 30.772H125.446V30.832H125.326V30.892H125.266V30.952H125.206L125.194 30.988V31.012L125.014 31.024V31.084H124.894V31.144H124.834L124.822 31.204ZM131.424 31.444H130.908V31.384H130.776L130.728 31.372V31.324H130.524L130.464 31.312V31.252H130.404V31.312L130.368 31.324H130.092L130.02 31.312V31.252H129.9V31.228L129.888 31.192H129.648V31.132L129.456 31.12V31.096L129.444 31.072H129.324V31H129.204V30.94H129.132V30.88H129.072V30.82L129.012 30.808V30.748H128.88V30.688H128.76V30.628H128.736L128.7 30.616L128.688 30.592V30.556H128.628V30.496H128.568V30.436L128.508 30.424V30.304H128.448L128.436 30.28V30.244H128.388V30.208L128.376 30.184H128.316V30.112H128.244V29.992H128.184V29.932H128.124V29.74H128.064V29.68H128.004V29.62H127.932V29.476H127.872V29.296H127.812V29.164H127.74V28.984H127.692L127.668 28.852H127.62V28.792L127.608 28.732L127.56 28.72L127.548 28.6V28.468H127.488V28.348L127.428 28.336V28.024H127.368V27.46H127.296V27.268H127.236V26.944L127.176 26.956V26.692H127.116V26.38H127.176V25.936H127.116V25.684H127.176V25.624L127.188 25.564H127.212L127.236 25.552V25.12L127.296 25.108V24.736H127.368V24.484H127.428V24.364L127.488 24.352V23.98H127.548V23.908H127.488V23.848L127.548 23.86L127.56 23.596H127.608L127.62 23.536V23.476L127.68 23.464V23.416L127.74 23.404V23.344H127.812V23.224L127.872 23.212V23.092H127.932V23.02H127.992L128.004 22.996V22.96H128.064V22.912L128.124 22.9V22.828H128.184V22.804L128.196 22.78L128.244 22.768V22.648H128.316V22.588L128.376 22.576V22.528L128.436 22.516V22.456H128.508V22.396L128.568 22.384V22.336H128.688V22.276L128.76 22.264V22.204H128.88L128.892 22.144H128.94L128.952 22.084L129.012 22.072V22.012H129.264V21.952L129.456 21.94V21.892H129.492L129.984 21.88H130.464V21.916L130.476 21.952H130.512L130.524 21.976V22L130.608 22.012H130.704L130.728 22.024V22.072H130.752L130.848 22.084H130.908V22.108L130.92 22.144H130.968V22.204H131.04V22.264L131.1 22.276V22.324L131.16 22.336V22.384L131.28 22.396L131.292 22.456H131.364V22.516L131.412 22.528L131.424 22.576L131.484 22.588V22.648H131.544V22.708H131.604V22.828L131.736 22.84V22.9H131.796V23.02H131.856L131.868 23.092H131.988V23.212L132.048 23.224V23.908H131.988V24.16H131.964L131.928 24.172V24.232H131.856V24.292H131.736V24.352H131.292V24.292L131.172 24.28V24.256L131.16 24.232H131.1V24.172L131.04 24.16V24.112L130.98 24.1V23.968L130.968 23.848H130.908V23.788L130.788 23.776V23.716H130.728L130.716 23.692V23.668L130.596 23.656V23.596H130.464V23.536H130.344V23.476L130.164 23.464L130.152 23.416L129.588 23.404V23.44L129.576 23.464L129.456 23.476V23.5L129.444 23.536H129.324V23.596H129.264V23.656H129.204V23.716H129.132V23.776L129.084 23.788L129.072 23.848H129.012V24.04H128.952V24.1L128.94 24.16L128.88 24.172V24.292H128.82V24.412L128.76 24.424V24.736H128.688V24.916L128.628 24.928V25.432H128.568V25.552H128.628V25.756H128.688V25.816L128.64 25.804L128.628 25.876V26.764H128.688V27.004L128.7 27.28V27.328H128.748L128.76 27.388V27.46H128.82V27.772L128.88 27.784V27.964H128.952V28.216H129.012V28.276H129.072V28.408H129.132L129.144 28.54H129.204V28.66H129.252L129.264 28.852H129.324V28.984H129.384V29.044L129.396 29.104H129.456V29.164L129.576 29.176L129.588 29.2V29.224H129.648V29.296H129.708V29.356H129.768V29.416H129.84V29.476L129.888 29.488L129.9 29.548H129.96V29.62H130.02V29.68H130.272V29.74H130.464V29.8H130.656V29.86H131.1V29.932H131.292V29.86H131.424V29.8H131.544V29.74H131.604V29.68H131.676V29.62L131.736 29.608V29.548H131.796V29.488L131.808 29.428H131.856L131.868 29.236L131.928 29.224V29.164H131.988V28.852H132.048V28.792H132.168V28.732H132.24V28.66H132.372V28.6L132.432 28.588V28.54L132.552 28.528L132.564 28.504V28.468H132.744V28.408H133.056V28.36L133.104 28.348H133.248L133.26 28.468H133.308V28.636L133.32 28.864V28.912H133.368L133.38 29.044H133.44V29.224L133.5 29.236L133.512 29.296V29.356H133.452L133.44 29.476H133.38V29.608L133.308 29.62V29.644L133.32 29.668L133.26 29.68L133.248 29.74H133.188V29.8H133.128V29.932H133.056V29.992H132.996V30.052H132.936V30.184H132.876V30.244H132.804V30.364H132.744V30.424L132.684 30.436V30.496L132.624 30.508L132.612 30.616L132.564 30.628L132.552 30.688H132.492V30.748L132.432 30.76V30.82L132.42 30.88H132.372V30.94H132.3V31L132.24 31.012V31.132H132.048V31.192H131.796V31.252L131.676 31.264V31.312H131.604V31.384H131.472L131.424 31.396V31.444ZM137.553 31.204H136.785V31.144L136.665 31.132V31.072H136.593V31.012H136.533V30.688H136.473V30.64L136.461 30.52V30.448H136.401V30.244H136.341V29.848L136.329 29.8L136.281 29.788L136.269 29.152H136.209V27.868H136.149V27.364H136.089V26.728H136.029V26.668L136.017 26.2V25.768L135.969 25.756L135.957 25.132L135.897 25.12L135.885 25.024V24.94H135.825V24.616L135.753 24.604V24.292H135.693V24.16H135.645V24.1H135.489L135.441 24.088V24.04H134.733V23.98H133.401V24.04H133.137V23.98L133.077 23.968H133.017L133.005 23.932V23.908L132.945 23.896V23.848H132.885V23.716H132.825V23.668L132.813 23.572V23.524H132.753V23.404L132.693 23.392L132.681 23.32L132.633 23.332L132.621 23.272L132.561 23.26L132.549 23.236V23.2H132.501V23.02H132.549L132.561 22.888H132.621V22.828H132.681V22.636L132.753 22.624V22.564H132.813V22.528L132.825 22.504L133.065 22.492V22.432H133.401V22.384L133.521 22.36V22.3H134.217V22.36H134.529L134.877 22.372L134.925 22.384L134.937 22.432L135.249 22.444V22.492L135.549 22.504H135.957V22.564H137.937V22.504H137.997V22.564H138.321V22.612L138.381 22.624L138.477 22.636H138.513V22.684L138.645 22.696V22.756H138.849L138.897 22.768V22.816L139.413 22.828V22.876L139.473 22.888V22.96H139.533V23.008L139.605 23.02V23.044L139.593 23.068H139.665V23.14H139.725V23.188L139.797 23.2V23.272H139.857V23.296L139.869 23.332L139.905 23.344H139.929V23.404H139.977V23.848H139.929V24.1H139.857V24.232H139.797V24.292H139.665V24.352L139.593 24.364V24.424H139.473V24.484H138.513V24.424H138.381V24.364H138.201V24.292L138.009 24.28V24.232H137.973L137.877 24.22H137.805V24.16H137.493V24.22L137.421 24.232V24.292H137.373L137.361 24.34L137.349 24.556L137.361 24.748L137.373 24.808H137.421V25.084L137.433 25.372L137.481 25.384L137.493 25.42V26.788H137.553V26.848L137.565 26.932L137.577 26.98H137.613L137.625 27.052V27.868H137.685L137.697 28.708L137.745 28.72L137.757 28.756V28.9H137.805V29.668H137.865V29.8H137.937V30.316H137.997V30.688H137.937V30.88L137.865 30.892V30.952H137.805V31.012H137.757V31.072H137.625V31.132H137.565L137.553 31.18V31.204ZM143.514 31.324H142.806V31.276H142.71L142.554 31.264H142.518V31.204H142.434L142.398 31.192V31.144H142.338L142.326 31.084H142.278V31.012H142.218V30.904L142.206 30.892H142.158V30.724H142.098V30.604H142.038V30.412H141.978V30.292H141.918V30.184H141.858V30.04H141.81V29.872H141.75V29.692H141.678V29.56H141.63V29.2L141.618 28.864H141.57V28.516H141.63V28.312L141.618 28.096V28.048H141.57L141.558 26.872H141.51V26.764H141.45V26.404H141.39V26.272L141.378 26.248H141.33V25.936H141.39V25.828H141.33V24.484H141.27V23.608H141.21V23.248H141.15V22.888H141.21V22.828H141.27V22.768H141.39V22.708H141.45V22.648H141.498L141.51 22.6V22.588L141.618 22.576L141.63 22.528H141.666L141.822 22.516H141.918V22.468L142.038 22.456V22.396H142.158V22.348L142.266 22.336L142.278 22.288L142.398 22.276V22.228L142.518 22.216V22.168H143.19V22.108L144.522 22.096L144.534 22.048H145.002V22.108H145.326V22.144L145.338 22.168L145.458 22.18V22.24L145.53 22.264V22.336L145.542 22.408H145.59V22.468H145.53V22.852H145.47V22.924H145.41V22.996H145.362V23.056L145.278 23.068V23.128L145.23 23.152V23.176L145.218 23.212L145.146 23.224V23.284L144.99 23.296V23.344L144.834 23.356V23.404H144.666L144.63 23.416V23.464H144.414V23.512H144.246L144.138 23.524V23.548L144.114 23.572H143.79V23.632H143.502V23.668L143.49 23.68H143.226V23.74H143.082V23.8H142.938V23.908H142.866V24.148H142.806V24.22H142.878L142.866 24.232V24.964H142.926V25.252L142.938 25.552H142.986V25.768H143.046V25.828H143.166V25.888H143.754V25.948H144.054V25.888H144.234V25.828H144.966L144.978 25.792V25.768H145.47V25.84H145.638V25.912H145.698V25.984H145.77V26.044H145.878V26.104L145.902 26.116L145.938 26.128V26.824L145.89 26.836L145.878 26.908H145.818V26.968H145.638V27.04L145.47 27.052V27.184H144.63V27.244H144.582L144.486 27.256H144.174V27.304L143.934 27.316V27.328L143.922 27.352L143.826 27.376V27.424H143.346V27.484H143.226V27.52L143.214 27.544H143.166V27.832H143.226V28.192H143.166V28.396H143.226V28.84H143.286V28.996H143.346V29.248H143.394L143.406 29.392L143.454 29.404V29.44H143.526V29.5H143.574V29.548H143.634V29.572L143.646 29.608H143.754V29.668H146.826V29.728L146.946 29.74V29.872L146.994 29.884L147.006 29.944L147.066 29.956V30.028H147.114L147.126 30.232L147.186 30.244V30.58H147.234V30.784L147.186 30.796V30.832L147.174 30.856L146.886 30.868V30.928L146.766 30.94V31H146.526V31.072H146.394L146.346 31.084V31.144H145.878V31.192L145.83 31.204H145.41V31.264H145.362L144.738 31.276H144.162V31.324H143.934V31.276L143.874 31.264H143.826L143.814 31.3V31.324H143.754V31.276H143.574L143.586 31.312L143.514 31.324ZM150.599 31.228H149.735V31.204L149.723 31.168H149.159V31.108H149.027V30.976H148.907V30.916H148.787V30.88L148.775 30.856L148.715 30.844V30.724H148.655V30.472H148.595V29.728L148.523 29.716V28.72H148.463V28.468H148.403V28.156H148.463V27.712H148.403V26.452H148.343V26.272H148.283V25.936L148.271 25.564V25.516H148.223V25.276L148.211 25V24.952H148.151V24.568H148.091V24.52L148.079 24.424V24.376H148.019V24.268L147.971 24.256V24.22L147.959 24.196H147.899V24.136H147.779V24.004H147.719V23.884H147.659L147.647 23.572V23.26L147.707 23.248V23.2L147.767 23.188L147.779 23.128H147.839V23.092L147.851 23.068H147.899L147.911 22.936H147.959V22.876H148.019L148.031 22.852V22.816H148.079L148.091 22.756L148.211 22.744L148.223 22.696L148.403 22.684V22.66L148.415 22.624H148.523V22.564H148.655V22.504H148.835L148.847 22.468V22.432H149.531V22.372H149.783L149.795 22.312H149.999L150.035 22.324V22.372H150.635V22.432H150.683L150.803 22.444H150.851V22.504H150.995V22.564H151.223V22.624H151.367L151.379 22.66V22.696H151.523V22.756H151.667V22.804L151.739 22.816V22.864L151.895 22.876V22.936H151.955V22.996L152.027 23.008L152.051 23.032V23.068H152.111V23.128H152.183V23.188L152.255 23.2V23.26H152.327V23.284L152.339 23.32H152.399V23.344L152.411 23.38H152.483V23.5L152.555 23.512V23.632H152.639V23.692H152.699L152.711 23.812H152.783V23.884H152.855V24.004H152.927V24.136H152.999V24.196H153.083V24.316H153.155V24.388H153.215V24.448H153.311V24.508H153.371V24.628L153.443 24.64V24.7H153.503L153.515 24.82H153.587L153.599 24.952H153.659V25L153.671 25.096V25.144H153.743V25.456H153.815V25.516L153.827 25.576H153.887L153.899 25.708H153.971V26.08H154.031V26.332H154.091V27.208L154.019 27.22V27.4H153.947V27.46H153.887L153.863 27.508V27.772H153.815L153.803 27.82V28.096H153.731V28.156H153.659L153.647 28.276H153.575V28.468H153.503V28.528H153.431L153.419 28.72H153.371L153.359 28.78H153.299V28.84H153.215V28.9L153.143 28.912V29.104H153.071V29.152L152.987 29.164V29.284H152.927V29.404H152.855V29.476H152.783V29.536H152.711V29.668H152.639V29.716H152.555V29.788H152.495V29.848H152.423V29.908H152.351L152.339 29.944V29.98H152.267V30.028L152.195 30.04V30.1H152.123V30.16H152.063V30.22H151.979V30.28H151.835V30.412H151.763L151.751 30.472H151.703V30.508L151.679 30.544H151.547V30.604H151.475V30.628L151.463 30.664H151.319V30.844L151.247 30.856V30.916H151.103V30.976H150.887V31.048H150.815V31.108H150.743V31.168H150.599V31.228ZM150.167 29.416V29.476H150.659V29.416L150.827 29.404V29.344H150.911V29.284H151.067V29.248L151.079 29.224H151.247V29.164H151.319V29.104H151.403V28.972H151.475L151.499 28.912H151.559L151.571 28.876V28.84H151.655V28.78H151.739V28.756L151.751 28.72H151.811L151.823 28.588H151.895V28.54H151.919L151.967 28.528L151.991 28.492V28.468H152.063V28.276H152.147V28.156H152.243V28.096H152.399V27.82L152.411 27.772H152.471V27.712H152.555L152.567 27.52H152.651V27.148H152.711V27.088H152.651V26.524L152.711 26.512V26.464H152.651V26.08H152.591L152.579 25.96H152.531L152.519 25.768H152.435V25.708H152.363V25.576H152.279V25.444H152.099V25.264H152.027V25.204H151.931V25.144L151.871 25.132V25.108L151.847 25.072H151.775V24.952H151.691V24.88H151.619V24.82H151.535L151.523 24.7H151.439V24.58L151.367 24.568V24.448H151.283V24.388L151.187 24.376V24.316H151.115V24.256H150.947V24.196H150.779V24.136H150.623V24.076L150.467 24.064V24.004H150.383V23.944H150.035V23.884H149.591V23.944H149.471V25.012H149.531L149.543 25.132L149.591 25.144V25.324H149.663V25.888H149.723V26.068L149.735 26.296V26.332H149.783V26.584H149.723V26.716H149.663V26.764H149.723V26.968L149.735 27.028H149.783V28.108L149.795 28.156H149.855V28.78H149.915V29.032H149.975V29.164H150.035V29.284H150.095L150.107 29.416H150.167ZM156.982 32.38H156.742V32.32H156.61V32.272H156.562V32.212H156.514L156.49 32.08H156.382V32.008H156.31V31.864L156.322 31.816H156.382V31.624H156.43V31.444H156.514V31.252H156.562V31.192H156.61V31H156.682V30.868H156.742V30.82L156.862 30.796V30.748H156.922V30.556H156.982V30.52L156.994 30.496H157.054V30.424H157.102V30.364H157.15V30.124H157.222V30.04H157.282V29.992H157.342L157.354 29.8H157.402V29.68L157.462 29.668V29.476H157.534V29.296H157.594V29.044H157.642V28.912H157.714V28.792L157.774 28.78V28.672L157.822 28.648V27.028H157.774V26.764H157.714V26.332H157.642V26.2H157.714L157.69 26.068H157.642V25.876H157.594L157.57 25.768H157.534L157.522 25.576L157.462 25.564V25.504H157.402L157.39 25.372H157.342V25.252H157.282V25.12H157.222V25.06H157.15V24.988H157.102V24.808H157.054V24.748H156.982V24.676H156.922V24.616H156.862V24.484H156.802V24.424H156.742V24.364H156.682V24.292L156.67 24.232H156.61V24.184H156.562V24.112H156.514V24.052H156.43V23.992H156.322L156.31 23.86H156.262V23.8H156.19V23.728H156.13V23.668H156.07V23.608L156.022 23.596V23.536H155.938V23.488H155.89V23.404H155.842V23.296H155.722V23.236L155.65 23.224V23.104H155.59V23.032H155.53V22.972H155.482L155.47 22.912V22.84H155.398V22.78H155.35V22.66H155.29V22.6H155.23V22.468H155.17V22.348L155.098 22.336V22.216H155.05V21.64H155.098V21.52H155.17V21.388H155.23V21.256H155.29V21.208H155.398V21.148H155.89V21.208H156.07V21.256L156.19 21.28V21.388H156.262V21.46H156.31V21.52H156.382V21.58H156.43V21.652H156.514V21.712H156.562V21.772H156.586L156.61 21.784V21.904H156.742V21.952H156.802V22.036H156.85L156.862 22.084V22.144H156.922V22.216H156.982V22.276H157.054V22.348H157.102V22.468H157.15L157.174 22.54L157.186 22.528L157.21 22.54H157.222V22.6H157.282V22.66H157.342V22.684L157.354 22.708H157.39L157.402 22.78V22.9L157.462 22.912V22.972H157.57L157.594 23.104H157.642V23.224L157.69 23.236L157.714 23.26V23.296H157.774V23.356H157.822V23.404L157.882 23.428L157.894 23.452V23.488H157.942V23.536H158.014V23.596L158.134 23.608V23.668H158.182V23.704L158.194 23.728H158.23L158.266 23.86H158.314V23.992H158.362V24.052H158.422L158.434 24.112V24.16L158.482 24.184V24.292H158.554V24.436L158.566 24.484H158.602L158.614 24.616H158.674V24.748H158.722L158.734 24.88H158.806V25.18L158.854 25.192V25.312H158.902V25.384L158.914 25.516V25.564H158.974V26.008H159.034V26.536L159.046 26.572H159.094V27.196H159.154V28.156H159.106V28.204L159.094 28.42V28.588H159.046L159.034 28.672V28.72H158.974L158.962 28.78H158.914L158.902 28.912H158.854V29.044H158.806V29.296H158.722V29.476H158.674V29.608H158.614V29.728L158.554 29.74V29.992H158.482V30.124H158.434V30.232L158.422 30.304H158.374L158.362 30.352V30.496H158.314V30.628H158.266V30.772L158.23 30.82H158.182V30.844L158.194 30.868H158.134V31H158.074V31.192H158.014V31.252H157.942V31.312H157.894V31.492L157.822 31.516V31.576H157.774V31.696H157.714V31.816H157.642V31.888H157.594V31.948H157.534V32.008H157.462V32.08H157.402L157.39 32.212H157.342V32.272H157.222V32.32H156.982V32.38Z" fill="#332E26"/>
<path opacity="0.5" d="M89.7271 44.0842C89.7271 44.1059 89.7271 44.1276 89.7617 48.2172C89.7962 52.3068 89.8653 60.4637 90.46 66.9219C91.0547 73.38 92.173 77.8923 93.5181 81.9102C94.8631 85.9281 96.401 89.315 97.5377 91.5968C99.2411 95.0162 100.766 96.8732 102.221 98.4586C105.161 101.664 110.022 103.028 115.764 104.333C119.015 105.073 123.063 105.417 125.766 105.668C129.725 106.036 132.301 105.752 135.247 105.148C142.543 103.653 145.721 101.117 146.961 100.22C147.322 99.9588 146.911 99.8364 146.526 99.7611C144.898 99.4431 143.182 99.3306 141.425 99.1035C140.876 99.0511 140.172 99.0321 139.657 98.9829C139.141 98.9337 138.837 98.8547 138.025 98.6239" stroke="#332E26" stroke-width="2" stroke-linecap="round"/>
<path opacity="0.5" d="M147.416 100.06C147.416 100.065 147.412 100.221 147.279 101.067C147.17 101.762 146.894 102.984 146.74 103.681C146.586 104.379 146.541 104.513 146.425 105.05C146.309 105.588 146.123 106.524 146.01 107.139C145.865 108.021 145.773 108.577 145.678 109.036C145.639 109.211 145.62 109.271 145.556 109.478" stroke="#332E26" stroke-width="2" stroke-linecap="round"/>
</svg>
